<?xml version="1.0" encoding="utf-8"?>
<!-- Generator: Adobe Illustrator 24.0.1, SVG Export Plug-In . SVG Version: 6.00 Build 0)  -->
<svg version="1.1" id="OUTLINED" xmlns="http://www.w3.org/2000/svg" xmlns:xlink="http://www.w3.org/1999/xlink" x="0px" y="0px"
	 viewBox="0 0 352 352" enable-background="new 0 0 352 352" xml:space="preserve">
<image overflow="visible" enable-background="new    " width="352" height="352" xlink:href="circle.png" >
</image>
<path id="waveShape" display="none" fill="#04ACFF" d="M367,70.3V352h-616V55.4c53.8,1.5,57.1,15,117.2,15
	c63.6,0,63.6-15.2,127.2-15.2S59,70.4,122.6,70.4s63.6-15.2,127.2-15.2C309.9,55.3,313.1,68.8,367,70.3z"/>
<circle id="maskcirc" display="none" fill="none" stroke="#000000" stroke-width="25" stroke-miterlimit="10" cx="176" cy="176" r="158.1"/>
<path fill="none" stroke="#B0A5BB" stroke-width="25" stroke-linecap="round" stroke-miterlimit="10" d="M184.3,19.2
	c32.9,1.7,62.9,13.3,87.3,31.6c40.7,30.6,66,80.1,63.1,134.5c-4.6,87.1-79.4,154-167.1,149.4C115.9,332,71.2,305,44.2,265.3
	c-18.7-27.5-28.9-61-27-96.7"/>
</svg>
