<?xml version="1.0" encoding="utf-8"?>
<!-- Generator: Adobe Illustrator 21.0.2, SVG Export Plug-In . SVG Version: 6.00 Build 0)  -->
<svg version="1.1" id="Layer_1" xmlns="http://www.w3.org/2000/svg" xmlns:xlink="http://www.w3.org/1999/xlink" x="0px" y="0px"
	 width="210px" height="20px" viewBox="0 0 210 20" style="enable-background:new 0 0 210 20;" xml:space="preserve">
<style type="text/css">
	.st0{enable-background:new    ;}
	.st1{fill:#FFFFFF;}
	.st2{fill:#FFF200;}
</style>
<g id="Layer_1_1_">
	<g id="ODOUR_ISSUES_x3F__1_" class="st0">
		<g id="ODOUR_ISSUES_x3F_">
			<g>
				<path class="st1" d="M10.4,0.9c-5.4,0-9.6,4.2-9.6,9.2l0,0c0,5,4,9.2,9.6,9.2s9.6-4.2,9.6-9.2l0,0C19.7,4.8,15.8,0.9,10.4,0.9z
					 M14.7,10c0,2.5-1.9,4.8-4.6,4.8c-2.7,0-4.6-2.3-4.6-4.8l0,0c0-2.5,1.9-4.8,4.6-4.8C12.8,5.2,14.7,7.5,14.7,10L14.7,10z
					 M28.9,1.1H22v17.7h6.7c6.5,0,10.2-3.8,10.2-9l0,0C38.9,4.8,35.4,1.1,28.9,1.1z M33.9,10c0,2.9-1.9,4.6-4.8,4.6H27v-9h2.1
					C32,5.4,33.9,7.1,33.9,10L33.9,10z M50.1,0.9c-5.4,0-9.6,4.2-9.6,9.2l0,0c0,5,4,9.2,9.6,9.2c5.4,0,9.6-4.2,9.6-9.2l0,0
					C59.7,4.8,55.8,0.9,50.1,0.9z M54.7,10c0,2.5-1.9,4.8-4.6,4.8s-4.6-2.3-4.6-4.8l0,0c0-2.5,1.9-4.8,4.6-4.8S54.7,7.5,54.7,10
					L54.7,10z M73.2,11.1c0,2.5-1.2,3.5-3.3,3.5c-1.9,0-3.3-1.2-3.3-3.7V1.1h-5v10c0,5.6,3.1,8.1,8.1,8.1s8.3-2.5,8.3-8.1V1.3h-4.8
					C73.2,1.3,73.2,11.1,73.2,11.1z M93.1,12.7c2.3-0.8,3.8-2.7,3.8-5.4l0,0c0-1.7-0.6-3.1-1.7-4.2c-1.2-1.2-3.1-1.9-5.8-1.9h-8.3
					v17.7h5v-5.4h2.1l3.5,5.4h5.6L93.1,12.7z M91.8,7.5c0,1.2-1,2.1-2.7,2.1h-3.3V5.3h3.1C90.8,5.4,91.8,6.1,91.8,7.5L91.8,7.5z"/>
			</g>
		</g>
	</g>
	<g id="Layer_2">
		<rect x="105.8" y="1.1" class="st2" width="5" height="17.7"/>
		<path class="st2" d="M120.8,19.2c4.4,0,7.1-2.1,7.1-5.8l0,0c0-3.3-2.5-4.6-6.7-5.4c-2.5-0.6-3.1-0.8-3.1-1.7l0,0
			c0-0.6,0.6-1,1.9-1c1.7,0,3.3,0.6,5,1.7l2.5-3.5c-1.9-1.5-4.4-2.3-7.3-2.3c-4.2,0-6.9,2.3-6.9,5.6l0,0c0,3.5,2.9,4.8,6.7,5.6
			c2.5,0.6,2.9,1,2.9,1.7l0,0c0,0.8-0.6,1.2-2.1,1.2c-2.1,0-4-0.8-5.8-2.1l-2.7,3.3C114.7,18.1,117.6,19.2,120.8,19.2z"/>
		<path class="st2" d="M136.8,19.2c4.4,0,7.1-2.1,7.1-5.8l0,0c0-3.3-2.5-4.6-6.7-5.4c-2.5-0.6-3.1-0.8-3.1-1.7l0,0
			c0-0.6,0.6-1,1.9-1c1.7,0,3.3,0.6,5,1.7l2.5-3.5c-1.9-1.5-4.4-2.3-7.3-2.3c-4.2,0-6.9,2.3-6.9,5.6l0,0c0,3.5,2.9,4.8,6.7,5.6
			c2.5,0.6,2.9,1,2.9,1.7l0,0c0,0.8-0.6,1.2-2.1,1.2c-2.1,0-4-0.8-5.8-2.1l-2.7,3.3C130.6,18.1,133.7,19.2,136.8,19.2z"/>
		<path class="st2" d="M154.1,19.2c5,0,8.3-2.5,8.3-8.1V1.3h-5v10c0,2.5-1.2,3.5-3.3,3.5c-1.9,0-3.3-1.3-3.3-3.8V1.2h-5v10
			C145.8,16.7,149.1,19.2,154.1,19.2z"/>
		<polygon class="st2" points="165.1,18.8 179.4,18.8 179.4,14.6 169.9,14.6 169.9,11.9 178.4,11.9 178.4,7.9 169.9,7.9 169.9,5.2 
			179.2,5.2 179.2,1.1 165.1,1.1 		"/>
		<path class="st2" d="M188.7,19.2c4.4,0,7.1-2.1,7.1-5.8l0,0c0-3.3-2.5-4.6-6.7-5.4c-2.5-0.6-3.1-0.8-3.1-1.7l0,0
			c0-0.6,0.6-1,1.9-1c1.7,0,3.3,0.6,5,1.7l2.5-3.5c-1.9-1.5-4.4-2.3-7.3-2.3c-4.2,0-6.9,2.3-6.9,5.6l0,0c0,3.5,2.9,4.8,6.7,5.6
			c2.5,0.6,2.9,1,2.9,1.7l0,0c0,0.8-0.6,1.2-2.1,1.2c-2.1,0-4-0.8-5.8-2.1l-2.7,3.3C182.6,18.1,185.6,19.2,188.7,19.2z"/>
		<path class="st2" d="M200.9,13.1h3.1l0.2-1.7c2.9-0.6,5-2.1,5-5.2l0,0c0-3.3-2.7-5.4-6.2-5.4c-2.9,0-5,1-6.7,2.7l2.5,3.3
			c1.2-1,2.5-1.7,3.8-1.7c1.2,0,1.9,0.6,1.9,1.5l0,0c0,1-1,1.9-4,2.1l-0.2,0.2L200.9,13.1z M199.9,18.8h5v-4.4h-5V18.8z"/>
	</g>
</g>
<g id="Layer_2_1_">
</g>
</svg>
