<?xml version="1.0" encoding="utf-8"?>
<!-- Generator: Adobe Illustrator 21.0.2, SVG Export Plug-In . SVG Version: 6.00 Build 0)  -->
<svg version="1.1" id="Layer_1" xmlns="http://www.w3.org/2000/svg" xmlns:xlink="http://www.w3.org/1999/xlink" x="0px" y="0px"
	 width="240px" height="20px" viewBox="0 0 240 20" style="enable-background:new 0 0 240 20;" xml:space="preserve">
<style type="text/css">
	.st0{fill:#FFF200;}
	.st1{fill:#FFFFFF;}
</style>
<g id="WASH_YOUR_GEAR">
	<g>
		<path class="st0" d="M22.6,1.2l-3.1,10.2L16.2,1.2H12L8.7,11.4L5.6,1.2H0.4l5.8,17.7h4.2l3.5-10.2l3.5,10.2h4.2l5.8-17.7H22.6z
			 M33.2,1l-7.5,17.7H31l1.2-3.1h6.9l1.2,3.1h5.2L38,1H33.2z M33.5,11.8l2.1-5l1.9,5H33.5z M54.1,7.5C51.6,7,51,6.8,51,6l0,0
			c0-0.6,0.6-1,1.7-1c1.5,0,3.3,0.6,5,1.7l2.5-3.3C58.2,1.8,56,1,52.8,1c-4.2,0-6.9,2.3-6.9,5.6l0,0c0,3.5,2.9,4.6,6.7,5.4
			c2.3,0.6,2.9,1,2.9,1.7l0,0c0,0.8-0.6,1.3-2.1,1.3c-2.1,0-4-0.6-5.6-2.1l-2.7,3.3c2.1,1.9,5.2,2.9,8.3,2.9c4.2,0,7.1-2.1,7.1-5.6
			l0,0C60.5,9.9,58,8.7,54.1,7.5z M73.9,7.5h-6.2V1h-4.8v17.5h4.8v-6.7h6.2v6.7h4.8V1h-4.8V7.5z M177,12h3.5V14
			c-0.6,0.4-1.7,0.6-2.9,0.6c-2.7,0-4.8-2.1-4.8-4.8l0,0c0-2.7,1.9-4.8,4.6-4.8c1.7,0,2.9,0.6,4.2,1.7l2.9-3.3
			c-1.9-1.7-4-2.5-7.1-2.5c-5.4,0-9.4,4-9.4,9.2l0,0c0,5.4,4.2,9.2,9.6,9.2c3.1,0,5.8-1.2,7.7-2.7V8.8h-8.1V12H177z M192.2,11.8h8.5
			V8h-8.5V5.2h9.4V1h-14.2v17.5h14.2v-4.2h-9.4V11.8z M210.1,1l-7.5,17.7h5.2l1.2-3.1h6.9l1.2,3.1h5.2L214.9,1H210.1z M210.3,11.8
			l2.1-5l1.9,5H210.3z M235.5,12.5c2.1-0.8,3.5-2.7,3.5-5.4l0,0c0-1.7-0.6-3.1-1.5-4.2c-1.2-1.2-3.1-1.9-5.6-1.9h-8.3v17.5h4.8v-5.4
			h2.1l3.5,5.4h5.6L235.5,12.5z M234.3,7.4c0,1.3-1,2.1-2.7,2.1h-3.1V5.2h3.1C233.5,5.2,234.3,6,234.3,7.4L234.3,7.4z"/>
	</g>
</g>
<polygon class="st1" points="93.2,18.7 98.2,18.7 98.2,12 104.9,1.2 99.5,1.2 95.8,7.4 92.2,1.2 86.6,1.2 93.2,12 "/>
<path class="st1" d="M113.2,19c5.4,0,9.6-4.2,9.6-9.2l0,0c0-5-4-9.2-9.4-9.2s-9.6,4.2-9.6,9.2l0,0C103.9,14.9,107.8,19,113.2,19z
	 M113.5,14.7c-2.7,0-4.6-2.3-4.6-4.8l0,0c0-2.5,1.9-4.8,4.4-4.8c2.7,0,4.6,2.3,4.6,4.8l0,0C117.8,12.4,116.2,14.7,113.5,14.7z"/>
<path class="st1" d="M133,19c5,0,8.3-2.5,8.3-8.1V1.2h-5V11c0,2.5-1.2,3.5-3.3,3.5c-1.9,0-3.3-1.3-3.3-3.8V1h-5v9.8
	C124.9,16.4,128,19,133,19z"/>
<path class="st1" d="M143.9,18.7h4.8v-5.4h2.1l0,0l3.5,5.4h5.6l-4.2-6c2.1-0.8,3.5-2.7,3.5-5.4l0,0c0-1.7-0.6-3.1-1.5-4.2
	c-1.2-1.2-3.1-1.9-5.6-1.9h-8.3L143.9,18.7L143.9,18.7z M148.7,9.5V5.2h3.1c1.7,0,2.7,0.6,2.7,2.1l0,0c0,1.3-1,2.1-2.7,2.1
	C151.8,9.4,148.7,9.4,148.7,9.5z"/>
</svg>
