<?xml version="1.0" encoding="utf-8"?>
<!-- Generator: Adobe Illustrator 21.0.2, SVG Export Plug-In . SVG Version: 6.00 Build 0)  -->
<svg version="1.1" id="Layer_1" xmlns="http://www.w3.org/2000/svg" xmlns:xlink="http://www.w3.org/1999/xlink" x="0px" y="0px"
	 width="300px" height="250px" viewBox="0 0 300 250" style="enable-background:new 0 0 300 250;" xml:space="preserve">
<style type="text/css">
	.st0{fill:#FFFFFF;}
	.st1{fill:#FFF200;}
</style>
<g id="Introducing_Purex_xAE__Odour_Release">
	<g>
		<path class="st0" d="M165.2,40.4h3.5V27.9h-3.5V40.4z M177.3,30.6c-1.5,0-2.3,0.8-2.9,1.7v-1.5H171v9.6h3.3v-5.2
			c0-1,0.6-1.7,1.5-1.7c0.8,0,1.2,0.6,1.2,1.7v5.2h3.3v-6.2C180.4,31.9,179.4,30.6,177.3,30.6z M186.5,28.3h-3.3v2.5h-1v2.7h1v4
			c0,2.3,1.2,3.1,3.3,3.1c1,0,1.7-0.2,2.3-0.6v-2.5c-0.4,0.2-0.8,0.4-1.2,0.4c-0.6,0-0.8-0.2-0.8-1v-3.3h2.3v-2.7h-2.3v-2.5H186.5z
			 M193.8,32.7v-1.9h-3.3v9.6h3.3v-2.9c0-2.3,1-3.3,2.7-3.3h0.2v-3.5C195,30.6,194.2,31.5,193.8,32.7z M202.9,30.6
			c-3.1,0-5.4,2.3-5.4,5l0,0c0,2.7,2.3,5,5.2,5c3.1,0,5.4-2.3,5.4-5l0,0C208.1,32.9,205.8,30.6,202.9,30.6z M204.8,35.6
			c0,1.2-0.8,2.1-2.1,2.1s-2.1-1-2.1-2.1l0,0c0-1.2,0.8-2.1,2.1-2.1S204.8,34.6,204.8,35.6L204.8,35.6z M216.7,32.1
			c-0.6-0.8-1.5-1.5-2.9-1.5c-2.3,0-4.2,1.9-4.2,5l0,0c0,3.1,1.9,5,4.2,5c1.5,0,2.3-0.6,2.9-1.5v1.2h3.3V27.5h-3.3V32.1z
			 M216.7,35.6c0,1.2-0.8,2.3-1.9,2.3c-1,0-1.9-0.8-1.9-2.3l0,0c0-1.2,0.8-2.1,1.9-2.1C215.8,33.5,216.7,34.4,216.7,35.6L216.7,35.6
			z M228.1,36c0,1-0.6,1.7-1.5,1.7s-1.5-0.6-1.5-1.7v-5.2h-3.3v6.2c0,2.3,1.2,3.5,3.3,3.5c1.5,0,2.3-0.8,2.9-1.5v1.2h3.3v-9.6h-3.3
			C228.1,30.8,228.1,36,228.1,36z M238.3,37.9c-1,0-1.9-1-1.9-2.3l0,0c0-1.2,0.8-2.1,1.9-2.1c0.8,0,1.2,0.4,1.9,1l2.3-1.7
			c-0.8-1.3-2.1-2.1-4.2-2.1c-3.1,0-5.2,2.3-5.2,5l0,0c0,2.7,2.1,5,5,5c2.1,0,3.3-0.8,4.4-2.3l-2.3-1.7
			C239.6,37.5,239,37.9,238.3,37.9z M243.8,30h3.5v-2.5h-3.5V30z M243.8,40.4h3.3v-9.6h-3.3V40.4z M255.4,30.6
			c-1.5,0-2.3,0.8-2.9,1.7v-1.5h-3.3v9.6h3.3v-5.2c0-1,0.6-1.7,1.5-1.7c0.8,0,1.2,0.6,1.2,1.7v5.2h3.3v-6.2
			C258.8,31.9,257.5,30.6,255.4,30.6z M267.5,30.8v1c-0.8-0.8-1.7-1.5-3.1-1.5c-2.3,0-4.2,1.7-4.2,4.6l0,0c0,2.7,1.9,4.4,4.4,4.4
			c1.5,0,2.3-0.6,2.9-1.5v0.4c0,1.5-0.8,2.3-2.5,2.3c-1.2,0-2.3-0.4-3.3-0.8l-1,2.3c1.5,0.6,2.9,1,4.8,1c2.1,0,3.3-0.4,4.2-1.5
			c0.8-0.8,1.3-2.1,1.3-3.8v-7.3h-3.3V30.8z M267.5,35.2c0,1-0.8,1.9-1.9,1.9c-1.2,0-1.9-0.8-1.9-1.9l0,0c0-1,0.8-1.9,1.9-1.9
			C266.9,33.3,267.5,34,267.5,35.2L267.5,35.2z"/>
	</g>
</g>
<path class="st1" d="M165.2,58.3h3.5v-3.5h1.7c3.1,0,5.4-1.5,5.4-4.6l0,0c0-2.7-2.1-4.4-5.2-4.4h-5.4V58.3z M168.5,52.1v-3.3h1.7
	c1.2,0,2.1,0.6,2.1,1.7l0,0c0,1-0.8,1.7-1.9,1.7C170.4,52.1,168.5,52.1,168.5,52.1z"/>
<path class="st1" d="M180.4,58.5c1.5,0,2.3-0.8,2.9-1.5v1.2h3.3v-9.6h-3.3V54c0,1-0.6,1.7-1.5,1.7s-1.5-0.6-1.5-1.7v-5.2h-3.3V55
	C177.1,57.1,178.3,58.5,180.4,58.5z"/>
<path class="st1" d="M188.8,58.3h3.3v-2.9c0-2.3,1-3.3,2.7-3.3h0.2v-3.5c-1.7,0-2.5,0.8-3.1,2.1v-1.9h-3.3v9.6H188.8z"/>
<path class="st1" d="M201,58.5c1.9,0,3.3-0.8,4.2-1.9l-1.9-1.5c-0.6,0.6-1.2,1-2.1,1c-1,0-1.9-0.6-2.1-1.7h6.5c0-0.2,0-0.4,0-0.6
	c0-2.9-1.5-5.2-4.8-5.2c-2.9,0-4.8,2.3-4.8,5l0,0C195.8,56.5,198.1,58.5,201,58.5z M199.2,52.7c0.2-1,0.8-1.7,1.7-1.7
	c0.8,0,1.5,0.6,1.7,1.7H199.2z"/>
<polygon class="st1" points="205.8,58.3 209.6,58.3 211,55.8 212.5,58.3 216,58.3 212.9,53.3 216,48.8 212.5,48.8 211,51 
	209.6,48.8 206,48.8 209.2,53.3 "/>
<path class="st1" d="M220,53.3c1.9,0,3.1-1.5,3.1-3.1l0,0c0-1.7-1.5-3.1-3.1-3.1s-3.1,1.5-3.1,3.1l0,0
	C216.9,52.1,218.3,53.3,220,53.3z M220,53.1c-1.7,0-2.7-1.2-2.7-2.9l0,0c0-1.5,1.2-2.9,2.7-2.9c1.7,0,2.7,1.2,2.7,2.9l0,0
	C222.9,51.9,221.7,53.1,220,53.1z M218.8,51.9h0.8v-1h0.4l0,0l0.6,1h1l-0.8-1.2c0.4-0.2,0.6-0.4,0.6-1l0,0c0-0.4,0-0.6-0.2-0.8
	c-0.2-0.2-0.6-0.4-1-0.4h-1.5V51.9z M219.6,50v-0.8h0.6c0.4,0,0.4,0.2,0.4,0.4l0,0c0,0.2-0.2,0.4-0.4,0.4
	C220.2,50,219.6,50,219.6,50z"/>
<path class="st1" d="M236.2,58.5c3.8,0,6.7-2.9,6.7-6.5l0,0c0-3.5-2.9-6.5-6.7-6.5c-3.7,0-6.7,2.9-6.7,6.5l0,0
	C229.6,55.6,232.5,58.5,236.2,58.5z M236.2,55.4c-1.9,0-3.1-1.7-3.1-3.3l0,0c0-1.9,1.2-3.3,3.1-3.3s3.1,1.7,3.1,3.3l0,0
	C239.4,54,238.1,55.4,236.2,55.4z"/>
<path class="st1" d="M248.8,58.5c1.5,0,2.3-0.6,2.9-1.5v1.2h3.3V45.4h-3.3V50c-0.6-0.8-1.5-1.5-2.9-1.5c-2.3,0-4.2,1.9-4.2,5l0,0
	C244.4,56.7,246.5,58.5,248.8,58.5z M249.8,55.6c-1,0-1.9-0.8-1.9-2.3l0,0c0-1.3,0.8-2.1,1.9-2.1s1.9,0.8,1.9,2.1l0,0
	C251.7,54.8,250.8,55.6,249.8,55.6z"/>
<path class="st1" d="M261.9,58.5c3.1,0,5.4-2.3,5.4-5l0,0c0-2.7-2.3-5-5.2-5c-3.1,0-5.4,2.3-5.4,5l0,0
	C256.7,56.2,258.8,58.5,261.9,58.5z M261.9,55.6c-1.2,0-2.1-1-2.1-2.1l0,0c0-1.2,0.8-2.1,2.1-2.1s2.1,1,2.1,2.1l0,0
	C264,54.6,263.1,55.6,261.9,55.6z"/>
<path class="st1" d="M272.1,58.5c1.5,0,2.3-0.8,2.9-1.5v1.2h3.3v-9.6H275V54c0,1-0.6,1.7-1.5,1.7c-0.8,0-1.5-0.6-1.5-1.7v-5.2h-3.3
	V55C268.8,57.1,270,58.5,272.1,58.5z"/>
<path class="st1" d="M280.2,58.3h3.3v-2.9c0-2.3,1-3.3,2.7-3.3h0.2v-3.5c-1.7,0-2.5,0.8-3.1,2.1v-1.9H280v9.6H280.2z"/>
<path class="st1" d="M165.2,76h3.5v-3.7h1.5l0,0l2.5,3.7h4l-2.9-4.4c1.5-0.6,2.5-1.9,2.5-3.8l0,0c0-1.2-0.4-2.3-1-2.9
	c-0.8-0.8-2.1-1.5-4-1.5h-5.8V76H165.2z M168.5,69.6v-2.9h2.3c1.2,0,1.9,0.4,1.9,1.5l0,0c0,0.8-0.6,1.5-1.9,1.5H168.5z"/>
<path class="st1" d="M182.5,76.2c1.9,0,3.3-0.8,4.2-1.9l-1.9-1.5c-0.6,0.6-1.2,1-2.1,1c-1,0-1.9-0.6-2.1-1.7h6.5c0-0.2,0-0.4,0-0.6
	c0-2.9-1.5-5.2-4.8-5.2c-2.9,0-4.8,2.3-4.8,5l0,0C177.3,74.4,179.6,76.2,182.5,76.2z M180.6,70.4c0.2-1,0.8-1.7,1.7-1.7
	c0.8,0,1.5,0.6,1.7,1.7H180.6z"/>
<rect x="188.8" y="63.1" class="st1" width="3.3" height="12.9"/>
<path class="st1" d="M199,76.2c1.9,0,3.3-0.8,4.2-1.9l-1.9-1.5c-0.6,0.6-1.2,1-2.1,1c-1,0-1.9-0.6-2.1-1.7h6.5c0-0.2,0-0.4,0-0.6
	c0-2.9-1.5-5.2-4.8-5.2c-2.9,0-4.8,2.3-4.8,5l0,0C193.8,74.4,196,76.2,199,76.2z M197.1,70.4c0.2-1,0.8-1.7,1.7-1.7
	c0.8,0,1.5,0.6,1.7,1.7H197.1z"/>
<path class="st1" d="M207.9,76.2c1.2,0,2.1-0.4,2.9-1.2v1h3.3v-5.6c0-1.5-0.2-2.3-1-3.1c-0.8-0.8-1.9-1.2-3.8-1.2
	c-1.7,0-2.7,0.2-4,0.8l0.6,2.3c0.8-0.4,1.7-0.6,2.7-0.6c1.2,0,1.9,0.6,1.9,1.7v0.2c-0.6-0.2-1.5-0.4-2.3-0.4c-2.3,0-3.8,1-3.8,3.1
	l0,0C204.8,75.2,206,76.2,207.9,76.2z M209.2,74.2c-0.6,0-1.2-0.4-1.2-1l0,0c0-0.6,0.6-1.2,1.5-1.2c0.4,0,1,0.2,1.2,0.2v0.4
	C210.8,73.5,210.2,74.2,209.2,74.2z"/>
<path class="st1" d="M219.8,76.2c2.3,0,4-1,4-3.1l0,0c0-1.9-1.5-2.5-3.3-3.1c-1-0.2-1.7-0.4-1.7-0.8l0,0c0-0.2,0.2-0.4,0.8-0.4
	c0.8,0,1.9,0.4,2.9,0.8l1.2-2.1c-1-0.6-2.5-1-4-1c-2.3,0-4,1-4,3.1l0,0c0,1.9,1.5,2.5,3.3,3.1c1,0.2,1.5,0.4,1.5,0.8l0,0
	c0,0.4-0.2,0.4-0.8,0.4c-1,0-2.3-0.4-3.3-1l-1.2,2.1C216.7,75.8,218.1,76.2,219.8,76.2z"/>
<path class="st1" d="M230.2,76.2c1.9,0,3.3-0.8,4.2-1.9l-1.9-1.5c-0.6,0.6-1.2,1-2.1,1c-1,0-1.9-0.6-2.1-1.7h6.5c0-0.2,0-0.4,0-0.6
	c0-2.9-1.5-5.2-4.8-5.2c-2.9,0-4.8,2.3-4.8,5l0,0C225,74.4,227.1,76.2,230.2,76.2z M228.1,70.4c0.2-1,0.8-1.7,1.7-1.7
	c0.8,0,1.5,0.6,1.7,1.7H228.1z"/>
</svg>
