<?xml version="1.0" encoding="utf-8"?>
<!-- Generator: Adobe Illustrator 21.0.2, SVG Export Plug-In . SVG Version: 6.00 Build 0)  -->
<svg version="1.1" id="Layer_1" xmlns="http://www.w3.org/2000/svg" xmlns:xlink="http://www.w3.org/1999/xlink" x="0px" y="0px"
	 width="300px" height="250px" viewBox="0 0 300 250" style="enable-background:new 0 0 300 250;" xml:space="preserve">
<style type="text/css">
	.st0{fill:#FFFFFF;}
	.st1{fill:#FFF200;}
</style>
<g id="_x23_WASHYOURGEAR">
	<g>
		<path class="st0" d="M86.2,225.6H84l-0.4,2.1h-1.9l0.4-2.1h-2.3l-0.4,2.1h-1.9v2.5h1.7l-0.2,1.7h-1.7v2.5h1.2l-0.4,2.1h2.3
			l0.4-2.1h1.9l-0.4,2.1h2.3l0.4-2.1h1.9v-2.5h-1.5l0.2-1.7h1.7v-2.5H86L86.2,225.6z M83.1,231.9H81l0.4-1.9h2.1L83.1,231.9z
			 M145,225.6l-2.3,4l-2.1-4h-3.3l4,6.7v4h2.9v-4l4-6.7H145z M153.8,225.4c-3.3,0-5.8,2.5-5.8,5.6l0,0c0,3.1,2.5,5.4,5.6,5.4
			c3.3,0,5.8-2.5,5.8-5.6l0,0C159.6,227.9,157.1,225.4,153.8,225.4z M156.5,231c0,1.5-1,2.9-2.7,2.9s-2.7-1.2-2.7-2.9l0,0
			c0-1.5,1-2.9,2.7-2.9S156.5,229.4,156.5,231L156.5,231z M167.9,231.7c0,1.5-0.8,2.3-1.9,2.3c-1.2,0-1.9-0.8-1.9-2.3v-5.8h-2.9v6
			c0,3.3,1.9,4.8,5,4.8s5-1.5,5-5v-5.8h-2.9v5.8H167.9z M180,232.7c1.2-0.6,2.1-1.7,2.1-3.3l0,0c0-1-0.4-1.9-1-2.5
			c-0.6-0.8-1.9-1.2-3.5-1.2h-4.6v10.6h2.9v-3.1h1.2l2.1,3.1h3.3L180,232.7z M179.4,229.6c0,0.8-0.6,1.2-1.7,1.2h-1.9v-2.5h1.9
			C178.8,228.3,179.4,228.8,179.4,229.6L179.4,229.6z"/>
	</g>
</g>
<polygon class="st1" points="91.5,236.5 94,236.5 96.2,230.2 98.3,236.5 100.8,236.5 104.4,225.6 101.5,225.6 99.6,231.9 
	97.5,225.6 95,225.6 92.9,231.9 91,225.6 87.9,225.6 "/>
<path class="st1" d="M103.5,236.2h3.1l0.8-1.9h4.2l0.8,1.9h3.1l-4.6-10.6h-2.9L103.5,236.2z M108.3,232.1l1.2-3.1l1.2,3.1H108.3z"/>
<path class="st1" d="M120.6,236.5c2.5,0,4.4-1.2,4.4-3.5l0,0c0-2.1-1.5-2.7-4-3.3c-1.5-0.4-1.9-0.6-1.9-1l0,0c0-0.4,0.4-0.6,1-0.6
	c1,0,2.1,0.4,2.9,1l1.5-2.1c-1.2-0.8-2.5-1.5-4.4-1.5c-2.5,0-4.2,1.5-4.2,3.3l0,0c0,2.3,1.7,2.9,4,3.3c1.5,0.4,1.9,0.6,1.9,1l0,0
	c0,0.4-0.4,0.8-1.2,0.8c-1.2,0-2.5-0.4-3.5-1.2l-1.7,1.9C117.1,235.8,118.8,236.5,120.6,236.5z"/>
<polygon class="st1" points="126.5,236.2 129.6,236.2 129.6,232.3 133.3,232.3 133.3,236.2 136.2,236.2 136.2,225.6 133.3,225.6 
	133.3,229.6 129.6,229.6 129.6,225.6 126.5,225.6 "/>
<path class="st1" d="M189.4,236.5c1.9,0,3.5-0.6,4.6-1.7V230h-4.8v2.1h2.1v1.2c-0.4,0.2-1,0.4-1.7,0.4c-1.7,0-2.9-1.2-2.9-2.9l0,0
	c0-1.7,1.2-2.9,2.7-2.9c1,0,1.9,0.4,2.5,1l1.7-2.1c-1-1-2.5-1.5-4.4-1.5c-3.3,0-5.6,2.5-5.6,5.6l0,0
	C183.5,234.2,186,236.5,189.4,236.5z"/>
<polygon class="st1" points="195.8,236.2 204.4,236.2 204.4,233.8 198.8,233.8 198.8,232.1 203.8,232.1 203.8,229.8 198.8,229.8 
	198.8,228.1 204.4,228.1 204.4,225.6 195.8,225.6 "/>
<path class="st1" d="M205.2,236.2h3.1l0.8-1.9h4.2l0.8,1.9h3.1l-4.6-10.6h-2.9L205.2,236.2z M209.8,232.1l1.2-3.1l1.2,3.1H209.8z"/>
<path class="st1" d="M218.3,236.2h2.9v-3.1h1.2l0,0l2.1,3.1h3.3l-2.5-3.8c1.2-0.6,2.1-1.7,2.1-3.3l0,0c0-1-0.4-1.9-1-2.5
	c-0.6-0.8-1.9-1.2-3.5-1.2h-5v10.8H218.3z M221.2,230.8v-2.5h1.9c1,0,1.7,0.4,1.7,1.2l0,0c0,0.8-0.6,1.2-1.7,1.2H221.2z"/>
</svg>
