<svg id="Layer_1" data-name="Layer 1" xmlns="http://www.w3.org/2000/svg" viewBox="0 0 86.16 18.49"><defs><style>.cls-1{fill:#fff;}</style></defs><title>secenca-logo</title><path class="cls-1" d="M0,13.64a9.48,9.48,0,0,0,5.65,2.1c1.21,0,2.85-.41,2.85-1.91C8.5,10.55.3,11.22.3,5.19a4.84,4.84,0,0,1,2-3.9A8,8,0,0,1,7,0a12.86,12.86,0,0,1,4.52.81V4A7.16,7.16,0,0,0,7.7,2.69c-1.06,0-2.35.46-2.35,1.72S6.91,6.22,7.91,6.65a13,13,0,0,1,3.58,2,5.1,5.1,0,0,1,2,4.07,5.27,5.27,0,0,1-2.15,4.36,8.38,8.38,0,0,1-5.22,1.4,14.59,14.59,0,0,1-5.22-1Z"/><path class="cls-1" d="M22.87,9.71a1.73,1.73,0,0,0-1.8-2,2,2,0,0,0-2,2Zm3.66,7.94a10.68,10.68,0,0,1-4.23.84,9.17,9.17,0,0,1-5.38-1.32,6.33,6.33,0,0,1-2.44-5.28,6.36,6.36,0,0,1,6.59-6.48c4.25,0,6.29,2.45,6.37,6.59H19.1a3.78,3.78,0,0,0,4,4,10.51,10.51,0,0,0,4.52-1.37Z"/><path class="cls-1" d="M34.3,6.84a4,4,0,0,1,3.31-1.43,4.75,4.75,0,0,1,3.8,1.53c1,1.16.91,2.37.91,3.8v4.44c0,1.26-.08,2,.94,2.88v.08H36.73v-.08c1-.84.94-1.62.94-2.88V10.63a2.72,2.72,0,0,0-.38-1.72,1.6,1.6,0,0,0-1.4-.76,1.57,1.57,0,0,0-1.21.62,3,3,0,0,0-.38,1.86v4.55c0,1.26-.07,2,1,2.88v.08H28.71v-.08c1-.84.94-1.62.94-2.88V8.72c0-1.24.08-2-.94-2.88V5.76h3.6a4.73,4.73,0,0,0,1.92-.4h.07Z"/><path class="cls-1" d="M53,9.71a1.74,1.74,0,0,0-1.8-2,2,2,0,0,0-2,2Zm3.65,7.94a10.63,10.63,0,0,1-4.22.84,9.15,9.15,0,0,1-5.38-1.32,6.33,6.33,0,0,1-2.45-5.28,6.37,6.37,0,0,1,6.6-6.48c4.24,0,6.29,2.45,6.37,6.59H49.24a3.78,3.78,0,0,0,3.95,4,10.47,10.47,0,0,0,4.52-1.37Z"/><path class="cls-1" d="M69.93,8.77h-.08a4.74,4.74,0,0,0-2.74-.88,2.59,2.59,0,0,0-2,.94,4.27,4.27,0,0,0-.7,2.66,5.29,5.29,0,0,0,1.13,3.36,3.17,3.17,0,0,0,2.45,1,6.08,6.08,0,0,0,3.55-1.27h.08l-.86,2.93a10.58,10.58,0,0,1-4.63,1c-3.71,0-6.91-2.45-6.91-6.35,0-4.45,3.44-6.73,7.58-6.73,1.06,0,2.13.19,3.18.27Z"/><path class="cls-1" d="M85.05,18.41,84,18.49a5.14,5.14,0,0,1-3.65-1.24c-1.27-1.19-1.16-2.42-1.16-4v-.89l-.86.41c-.67.32-1.54.72-1.54,1.61a1.68,1.68,0,0,0,1.65,1.75,3.07,3.07,0,0,0,.53-.06l-1.15,2.35-1.38.08a5.9,5.9,0,0,1-2.87-.65,3.76,3.76,0,0,1-1.78-3.15c0-5,7.4-3.33,7.4-5.6,0-.83-1-1.12-1.72-1.12a7.9,7.9,0,0,0-3.39.88l1.26-3.06a12.83,12.83,0,0,1,3.39-.38,6.33,6.33,0,0,1,3.74,1c1.35,1,1.48,2.59,1.48,4.15v2.15c0,1.8-.08,3.28,2.24,3.33Z"/></svg>