<?xml version="1.0" encoding="utf-8"?>
<!-- Generator: Adobe Illustrator 21.1.0, SVG Export Plug-In . SVG Version: 6.00 Build 0)  -->
<svg version="1.1" id="Layer_1" xmlns="http://www.w3.org/2000/svg" xmlns:xlink="http://www.w3.org/1999/xlink" x="0px" y="0px"
	 viewBox="0 0 140 35" enable-background="new 0 0 140 35" xml:space="preserve">
<polyline fill="#4B286D" points="80,12.8 80,10.5 71.2,10.5 71.2,23.1 80,23.1 80,20.5 74.8,20.5 74.8,17.7 79.1,17.7 79.1,15.2 
	74.8,15.2 74.8,12.8 80,12.8 "/>
<polyline fill="#4B286D" points="95.6,20.6 90,20.6 90,10.5 86.4,10.5 86.4,23.1 95.6,23.1 95.6,20.6 "/>
<path fill="#4B286D" d="M124.5,15.2c-2.4-0.5-3.3-0.7-3.3-1.5c0-0.9,1.2-1.2,1.9-1.2c1.1,0,2.4,0.2,3.8,1l1-2.3
	c-1.3-0.8-3.2-1.1-4.9-1.1c-3.4,0-5.6,1.3-5.7,4c-0.1,2.4,1.9,3.3,3.7,3.7c1.7,0.3,3.5,0.7,3.6,1.7c0,1-0.9,1.3-2.4,1.3
	c-1.5,0-2.9-0.4-4.4-1.1l-0.9,2.5c1.6,0.7,3.3,1.1,5,1.1c2.4,0,4.1-0.4,5.3-1.5c0.9-0.9,1.2-1.9,1.2-2.7
	C128.6,17,127.4,15.9,124.5,15.2"/>
<polyline fill="#4B286D" points="66.2,12.8 66.2,10.5 55.1,10.5 55.1,12.8 58.8,12.8 58.8,23.1 62.4,23.1 62.4,12.8 66.2,12.8 "/>
<path fill="#4B286D" d="M107.8,10.5v8.1c0,0.7,0,0.9,0,1.1c-0.1,0.8-0.9,1.2-2.1,1.2c-0.9,0-1.5-0.3-1.9-0.8
	c-0.1-0.2-0.2-0.7-0.2-1.3v-8.3h-3.7v8.7c0,1.2,0.1,1.7,0.8,2.4c0.9,1.1,2.6,1.7,5.1,1.7c0,0,0,0,0.1,0l0,0c3.3,0,4.9-1.3,5.3-2.4
	c0.2-0.5,0.2-0.9,0.2-2v-8.5H107.8"/>
<path fill="#4B286D" d="M56.8,7l-20.9,4.1v1.4l0,0c13.8-3.4,20.9-5.3,20.9-5.3C56.9,7.2,56.9,7.1,56.8,7C56.9,7,56.8,7,56.8,7"/>
<path fill="#6EBE44" d="M39.2,8.1c0.3-0.2,0.4-0.1,0.3,0.1c-0.1,0.4-0.9,2.6-6.2,7c-1.3,1.1-2.4,1.7-4.4,2.9
	C32.3,13.6,37,9.5,39.2,8.1 M39.7,6.5c-1,0-2.9,1.5-3.9,2.5c-4.1,3.6-7.2,6.9-9.4,10.2c-4.7,2.5-10.7,5-16.4,7.1H9.9l-1.1,3l0.7-0.2
	c3.7-1.4,10-4.1,15.6-7.1c-0.3,0.9-0.4,1.6-0.4,2.3c0,0.5,0.1,1,0.3,1.4c0.3,0.9,1.1,1.5,2.1,2c1.4,0.5,3.5,0.5,5.7-0.1
	c5.8-1.7,12.6-7.1,14-8.2l0,0v-0.1h-0.1h-0.1c-1.6,1-9.4,5.6-14.4,7c-2.6,0.7-4.5,0.3-5.2-0.8c-0.2-0.3-0.4-0.8-0.4-1.3
	c0-1,0.4-2.3,1.4-3.7c0.9-0.4,1.6-1,2.3-1.4C35.1,16.4,40.8,11,41,7.7c0,0,0,0,0-0.1c0-0.3-0.1-0.5-0.3-0.8
	C40.4,6.6,40.1,6.5,39.7,6.5z"/>
<polyline fill="#4B286D" points="35.7,11.1 13.7,15.9 13,18.2 35.8,12.5 35.9,12.5 35.9,11.1 35.7,11.1 "/>
<rect fill="none" width="139.7" height="34.9"/>
</svg>
