<?xml version="1.0" encoding="utf-8"?>
<!-- Generator: Adobe Illustrator 21.0.2, SVG Export Plug-In . SVG Version: 6.00 Build 0)  -->
<svg version="1.1" id="Layer_1" xmlns="http://www.w3.org/2000/svg" xmlns:xlink="http://www.w3.org/1999/xlink" x="0px" y="0px"
	 width="112px" height="14px" viewBox="0 0 112 14" style="enable-background:new 0 0 112 14;" xml:space="preserve">
<style type="text/css">
	.st0{fill:#FFFFFF;}
</style>
<title>Asset 2</title>
<g id="Layer_2">
	<g id="BTN">
		<g id="Discover_more">
			<path class="st0" d="M5.2,1.7c1.5-0.1,2.9,0.4,4,1.4c1,1.2,1.6,2.7,1.4,4.3c0.1,1.6-0.4,3.1-1.4,4.3c-1,1-2.4,1.5-3.9,1.4H0.9
				V1.7H5.2z M4.9,11.9c1.1,0.1,2.2-0.3,3.1-1c0.8-0.9,1.1-2.1,1-3.3C9.1,6.3,8.7,5,7.9,4.1C7,3.3,5.8,2.9,4.6,3H2.5v8.9H4.9z"/>
			<path class="st0" d="M13.9,0.6v1.8h-1.5V0.6H13.9z M13.9,4.4v8.8h-1.5V4.4H13.9z"/>
			<path class="st0" d="M19.5,13.4c-2.1,0-3.6-1-3.8-2.8h1.5c0.2,1.1,1.2,1.8,2.3,1.6c1,0,2.2-0.4,2.2-1.5c0-0.8-0.7-1.2-1.8-1.4
				l-1.3-0.3C16.9,8.7,16,8,16,6.7c0-1.8,1.7-2.5,3.5-2.5s3.2,0.9,3.4,2.5h-1.4c-0.2-0.9-1.1-1.5-2-1.4c-1,0-1.9,0.4-1.9,1.3
				s0.9,1.2,1.7,1.3L21,8.3c1.2,0.3,2.2,0.9,2.2,2.3C23.2,12.6,21.5,13.4,19.5,13.4z"/>
			<path class="st0" d="M32.5,6.9h-1.5c-0.2-1-1.2-1.7-2.2-1.6C27,5.3,26,7.1,26,8.8s0.9,3.4,2.8,3.4c1.1,0,2.1-0.8,2.3-1.9h1.5
				c-0.3,1.9-1.9,3.2-3.8,3.1c-2.6,0-4.3-2-4.3-4.6c0-2.5,1.5-4.7,4.3-4.7C30.8,4.2,32.3,5.1,32.5,6.9z"/>
			<path class="st0" d="M41.4,12.1c-0.8,0.9-2,1.4-3.2,1.3c-1.2,0.1-2.3-0.4-3.1-1.3c-0.8-0.9-1.2-2.1-1.2-3.3
				c0-1.2,0.4-2.4,1.2-3.3c0.8-0.9,1.9-1.4,3.1-1.3c1.2-0.1,2.3,0.4,3.1,1.3c0.8,0.9,1.2,2.1,1.2,3.3C42.6,10,42.2,11.2,41.4,12.1z
				 M38.2,5.3c-1.8,0-2.8,1.6-2.8,3.5s1,3.4,2.8,3.4s2.8-1.6,2.8-3.4S40.2,5.3,38.2,5.3z"/>
			<path class="st0" d="M44.7,4.4l2.5,7.3l0,0l2.5-7.3h1.5L48,13.2h-1.6l-3.3-8.8H44.7z"/>
			<path class="st0" d="M59.9,8.9v0.2h-6.7c0,1.6,0.9,3.1,2.6,3.1c1,0.1,2-0.5,2.4-1.4h1.4c-0.6,1.6-2.1,2.7-3.9,2.6
				c-2.7,0-4.1-2-4.1-4.6c0-2.4,1.4-4.6,4.2-4.6S59.9,6.4,59.9,8.9z M58.4,8.1c0.1-1.4-1.1-2.7-2.5-2.8c-1.6,0-2.4,1.2-2.6,2.8H58.4
				z"/>
			<path class="st0" d="M61.8,13.2V4.4h1.4v1.9l0,0c0.2-0.6,0.7-1.1,1.2-1.5c0.5-0.4,1.2-0.6,1.8-0.5c0.2,0,0.3,0,0.5,0v1.4
				c-0.2,0-0.3,0-0.5,0c-0.8,0-1.6,0.3-2.2,0.9c-0.5,0.6-0.8,1.4-0.8,2.2v4.4L61.8,13.2z"/>
			<path class="st0" d="M83.4,13.2V7.5c0-1.3-0.5-2.1-1.9-2.1c-1.4,0-2.2,1-2.2,2.8v5h-1.5V7.4c0-1.3-0.5-2-1.7-2
				c-0.7,0-1.3,0.2-1.7,0.8c-0.4,0.6-0.6,1.3-0.6,2v5h-1.5V4.4h1.4v1.4l0,0c0.6-1,1.7-1.7,2.8-1.6c1.1-0.1,2.2,0.5,2.6,1.6
				c0.5-1,1.6-1.7,2.8-1.6c1.5-0.2,2.8,0.9,3,2.4c0,0.2,0,0.4,0,0.6v6H83.4z"/>
			<path class="st0" d="M94.2,12.1c-0.8,0.9-2,1.4-3.2,1.3c-1.2,0.1-2.3-0.4-3.1-1.3c-0.8-0.9-1.2-2.1-1.2-3.3
				c0-1.2,0.4-2.4,1.2-3.3c0.8-0.9,1.9-1.4,3.1-1.3c1.2-0.1,2.3,0.4,3.1,1.3c0.8,0.9,1.2,2.1,1.2,3.3C95.4,10,95,11.2,94.2,12.1z
				 M91.1,5.3c-1.8,0-2.8,1.6-2.8,3.5s1,3.4,2.8,3.4s2.9-1.6,2.9-3.4S93,5.3,91.1,5.3z"/>
			<path class="st0" d="M97.3,13.2V4.4h1.4v1.9l0,0c0.3-0.6,0.7-1.2,1.3-1.5c0.5-0.4,1.2-0.6,1.8-0.5c0.2,0,0.3,0,0.5,0v1.4
				c-0.2,0-0.3,0-0.5,0c-0.8,0-1.6,0.3-2.2,0.9c-0.5,0.6-0.8,1.4-0.8,2.2v4.4L97.3,13.2z"/>
			<path class="st0" d="M111.1,8.9v0.2h-6.7c0,1.6,0.9,3.1,2.6,3.1c1,0.1,2-0.5,2.4-1.4h1.4c-0.6,1.6-2.2,2.7-3.9,2.6
				c-2.7,0-4.1-2-4.1-4.6c0-2.4,1.4-4.6,4.2-4.6S111.1,6.4,111.1,8.9z M109.6,8.1c0.1-1.5-1.1-2.7-2.5-2.7c0,0,0,0-0.1,0
				c-1.6,0-2.4,1.2-2.6,2.8H109.6z"/>
		</g>
	</g>
</g>
</svg>
