<?xml version="1.0" encoding="utf-8"?>
<!-- Generator: Adobe Illustrator 21.1.0, SVG Export Plug-In . SVG Version: 6.00 Build 0)  -->
<svg version="1.1" id="Layer_1" xmlns="http://www.w3.org/2000/svg" xmlns:xlink="http://www.w3.org/1999/xlink" x="0px" y="0px"
	 width="300px" height="250px" viewBox="0 0 300 250" enable-background="new 0 0 300 250" xml:space="preserve">
<path fill="#54595F" d="M187.5,238.3h0.9v0.9h-0.9V238.3z"/>
<g>
	<path fill="#54595F" d="M118.2,231.4v-0.9h0.9v0.9H118.2z M118.3,239.2v-6.1h0.7v6.1H118.3z"/>
	<path fill="#54595F" d="M121.4,239.2h-0.7v-6.1h0.6v0.8l0,0c0.3-0.5,0.8-0.9,1.4-0.9s1.2,0.3,1.4,0.9c0.3-0.6,0.8-0.9,1.5-0.9
		c1,0,1.5,0.7,1.6,1.7v4.5h-0.7v-4.3c0-0.6-0.2-1.3-0.9-1.3c-0.9,0-1.3,0.9-1.3,1.7v3.9h-0.7v-4.3c0-0.6-0.2-1.3-0.9-1.3
		c-0.9,0-1.3,0.9-1.3,1.7V239.2z"/>
	<path fill="#54595F" d="M128.9,231.4v-0.9h0.9v0.9H128.9z M129,239.2v-6.1h0.7v6.1H129z"/>
	<path fill="#54595F" d="M130.9,233.7v-0.6h1v-1.2l0.7-0.3v1.6h1.2v0.6h-1.2v3.9c0,0.8,0.1,1,0.7,1c0.2,0,0.4,0,0.6,0v0.6
		c-0.2,0-0.5,0-0.7,0c-1,0-1.3-0.4-1.3-1.2v-4.3L130.9,233.7L130.9,233.7z"/>
	<path fill="#54595F" d="M137.9,238.4L137.9,238.4c-0.4,0.6-1,0.9-1.7,0.9c-1.1,0-1.7-0.7-1.7-1.8c0-2.1,2.1-1.9,3.4-2V235
		c0-0.9-0.3-1.4-1.2-1.4c-0.7,0-1.2,0.3-1.2,1h-0.8c0.1-1.2,1-1.6,2-1.6c0.6,0,1.9,0.1,1.9,1.6v3c0,0.4,0,0.8,0.1,1.5H138v-0.7
		H137.9z M137.8,236.1c-1,0-2.6-0.1-2.6,1.4c0,0.7,0.3,1.2,1.1,1.2s1.5-0.7,1.5-1.5V236.1z"/>
	<path fill="#54595F" d="M139.5,233.7v-0.6h1v-1.2l0.7-0.3v1.6h1.2v0.6h-1.2v3.9c0,0.8,0.1,1,0.7,1c0.2,0,0.4,0,0.6,0v0.6
		c-0.2,0-0.5,0-0.7,0c-1,0-1.3-0.4-1.3-1.2v-4.3L139.5,233.7L139.5,233.7z"/>
	<path fill="#54595F" d="M143.6,231.4v-0.9h0.9v0.9H143.6z M143.6,239.2v-6.1h0.7v6.1H143.6z"/>
	<path fill="#54595F" d="M145.9,236.8v-1.3c0-1.6,0.7-2.5,2.1-2.5c1.4,0,2.1,0.9,2.1,2.5v1.3c0,1.6-0.7,2.5-2.1,2.5
		C146.6,239.3,145.9,238.4,145.9,236.8z M146.6,236.2c0,1.6,0.2,2.6,1.4,2.6s1.4-1,1.4-2.6s-0.2-2.6-1.4-2.6
		C146.8,233.6,146.6,234.6,146.6,236.2z"/>
	<path fill="#54595F" d="M152.1,239.2h-0.7v-6.1h0.7v0.7l0,0c0.3-0.5,0.8-0.9,1.5-0.9c1.5,0,1.7,1.1,1.7,1.9v4.3h-0.7v-4.2
		c0-0.7-0.3-1.4-1.1-1.4c-0.6,0-1.3,0.4-1.3,1.8L152.1,239.2L152.1,239.2z"/>
	<path fill="#54595F" d="M158.3,239.3c-1.3,0-1.8-0.6-1.8-1.9h0.7c0,0.8,0.2,1.4,1.1,1.4c0.7,0,1-0.4,1-1.1c0-1.6-2.7-1.2-2.7-3.2
		c0-1.1,0.8-1.5,1.8-1.5c1.2,0,1.6,0.8,1.6,1.8h-0.7c0-0.8-0.2-1.2-1.1-1.2c-0.5,0-0.9,0.3-0.9,0.9c0,1.5,2.7,1.1,2.7,3.1
		C160.1,238.7,159.5,239.3,158.3,239.3z"/>
	<path fill="#54595F" d="M167.2,238.4L167.2,238.4c-0.4,0.6-1,0.9-1.7,0.9c-1.1,0-1.7-0.7-1.7-1.8c0-2.1,2.1-1.9,3.4-2V235
		c0-0.9-0.3-1.4-1.2-1.4c-0.7,0-1.2,0.3-1.2,1H164c0.1-1.2,1-1.6,2-1.6c0.6,0,1.9,0.1,1.9,1.6v3c0,0.4,0,0.8,0.1,1.5h-0.7v-0.7
		H167.2z M167.1,236.1c-1,0-2.6-0.1-2.6,1.4c0,0.7,0.3,1.2,1.1,1.2s1.5-0.7,1.5-1.5V236.1z"/>
	<path fill="#54595F" d="M170.1,233.9L170.1,233.9c0.4-0.6,1-0.9,1.5-0.9c1.9,0,1.9,1.7,1.9,2.4v1.4c0,1.6-0.5,2.5-2.1,2.5
		c-0.4,0-0.9-0.2-1.3-0.8l0,0v3h-0.7v-8.3h0.7L170.1,233.9L170.1,233.9z M170.1,236.7c0,1.4,0.6,2,1.3,2c1.2,0,1.4-1,1.4-2.6
		s-0.2-2.6-1.4-2.6c-0.5,0-1.3,0.5-1.3,2V236.7z"/>
	<path fill="#54595F" d="M175.4,233.9L175.4,233.9c0.4-0.6,1-0.9,1.5-0.9c1.9,0,1.9,1.7,1.9,2.4v1.4c0,1.6-0.5,2.5-2.1,2.5
		c-0.4,0-0.9-0.2-1.3-0.8l0,0v3h-0.7v-8.3h0.7L175.4,233.9L175.4,233.9z M175.5,236.7c0,1.4,0.6,2,1.3,2c1.2,0,1.4-1,1.4-2.6
		s-0.2-2.6-1.4-2.6c-0.5,0-1.3,0.5-1.3,2V236.7z"/>
	<path fill="#54595F" d="M180.3,239.2v-8.7h0.7v8.7H180.3z"/>
	<path fill="#54595F" d="M184,239.2l-1.9-6.1h0.8l1.5,5l0,0l1.4-5h0.7l-2.5,8.3h-0.7L184,239.2z"/>
	<polyline fill="#54595F" points="117.1,239.2 113.5,239.2 113.5,230.5 114.2,230.5 114.2,238.5 117.1,238.5 	"/>
</g>
<g>
	<path fill="#54595F" d="M109.9,231.7L109.9,231.7c-0.7-0.4-1.4-0.2-1.4-0.7c0-0.1,0-0.3,0.3-0.3
		C109.2,230.7,109.2,231.1,109.9,231.7v-0.2c0-0.7-0.2-0.8-0.2-1.1s0.2-0.3,0.3-0.3c0.2,0,0.3,0.2,0.3,0.3c0,0.2-0.2,0.6-0.2,1v0.2
		h0.1c0.5-0.3,0.8-0.9,1.1-0.9c0.1,0,0.3,0.1,0.3,0.3c0,0.5-0.5,0.2-1.3,0.7h0.1c0.7,0.4,1.3,0.2,1.3,0.7c0,0.2-0.1,0.3-0.3,0.3
		c-0.4,0-0.6-0.6-1.1-0.9h-0.1v0.1c0,0.8,0.2,0.9,0.2,1.2c0,0.2-0.1,0.3-0.3,0.3c-0.1,0-0.3-0.1-0.3-0.3c0-0.3,0.3-0.7,0.2-1.2v-0.1
		c-0.4,0.3-0.4,0.3-0.6,0.5c-0.3,0.3-0.3,0.4-0.5,0.4s-0.3-0.2-0.3-0.3C108.5,232,109.2,232.2,109.9,231.7z"/>
</g>
</svg>
