<?xml version="1.0" encoding="utf-8"?>
<!-- Generator: Adobe Illustrator 21.0.2, SVG Export Plug-In . SVG Version: 6.00 Build 0)  -->
<svg version="1.1" id="Layer_1" xmlns="http://www.w3.org/2000/svg" xmlns:xlink="http://www.w3.org/1999/xlink" x="0px" y="0px"
	 width="288px" height="72px" viewBox="0 0 288 72" enable-background="new 0 0 288 72" xml:space="preserve">
<polyline fill="#4B286D" points="165.1,26.6 165.1,21.5 147,21.5 147,47.6 165.1,47.6 165.1,42.3 154.4,42.3 154.4,36.5 163.3,36.5 
	163.3,31.4 154.4,31.4 154.4,26.6 165.1,26.6 "/>
<polyline fill="#4B286D" points="197.1,42.5 185.8,42.5 185.8,21.5 178.3,21.5 178.3,47.6 197.1,47.6 197.1,42.5 "/>
<path fill="#4B286D" d="M256.9,31.4c-5-1.1-6.8-1.3-6.8-3.2c0-1.9,2.5-2.4,3.9-2.4c2.3,0,5,0.5,7.8,2l2-4.8c-2.8-1.6-6.5-2.2-10-2.2
	c-6.9,0-11.5,2.8-11.7,8.3c-0.2,5,3.9,6.8,7.6,7.6c3.6,0.7,7.2,1.4,7.3,3.5c0.1,2-1.7,2.8-5,2.8c-3.1,0-6-1-8.9-2.2l-1.7,5.2
	c3.4,1.4,6.8,2.2,10.3,2.2c4.9,0,8.5-0.8,11.1-3.2c1.8-1.7,2.4-3.8,2.4-5.7C265.2,35.1,262.7,32.7,256.9,31.4"/>
<polyline fill="#4B286D" points="136.5,26.6 136.5,21.5 113.7,21.5 113.7,26.6 121.4,26.6 121.4,47.6 128.8,47.6 128.8,26.6 
	136.5,26.6 "/>
<path fill="#4B286D" d="M222.4,21.5v16.6c0,1.3,0,1.7-0.1,2.2c-0.2,1.6-1.8,2.5-4.2,2.5c-1.8,0-3.1-0.6-3.8-1.5
	c-0.3-0.5-0.5-1.4-0.5-2.8v-17h-7.7v18c0,2.5,0.3,3.6,1.5,5c1.9,2.3,5.5,3.6,10.5,3.6c0.1,0,0.1,0,0.2,0h0.1c6.7,0,10.1-2.6,11.1-5
	c0.5-1.2,0.5-1.7,0.5-4.1V21.5H222.4"/>
<path fill="#4B286D" d="M117.2,14.3L74,22.9v3h0.1c28.5-6.9,43-11.1,43.2-11.1c0.2,0,0.2-0.2,0.2-0.3
	C117.5,14.4,117.3,14.3,117.2,14.3"/>
<path fill="#6EBE44" d="M80.9,16.7c0.7-0.4,0.9-0.2,0.7,0.3c-0.3,0.8-1.8,5.5-12.7,14.4c-2.8,2.3-4.9,3.6-8.9,6
	C66.7,28.1,76.5,19.6,80.9,16.7 M82.1,13.5c-2.1,0.1-6,3.2-8.1,5.1c-8.5,7.3-14.8,14.1-19.4,21.2c-9.6,5.1-21.9,10.4-34,14.5
	l-0.3,0.1L18,60.7l1.3-0.5c7.7-2.9,20.6-8.5,32.2-14.6c-0.7,1.8-1,3.4-1,4.8c0,1.1,0.2,2.1,0.6,3c0.7,1.8,2.2,3.2,4.2,4
	c3,1.2,7.1,1.2,11.7-0.2c11.9-3.6,26-14.6,29-16.8l0.1-0.1c0.1-0.1,0.1-0.2,0.1-0.3c-0.1-0.1-0.2-0.1-0.3-0.1L95.7,40
	C92.4,42,76.4,51.5,66,54.3c-5.3,1.4-9.3,0.6-10.8-1.5c-0.5-0.7-0.8-1.6-0.8-2.7c0-2.1,1-4.8,2.9-7.7c1.7-1,3.4-2,4.8-2.9
	C72.3,33.8,84,22.7,84.5,16c0,0,0-0.1,0-0.2c0-0.6-0.3-1.2-0.7-1.6C83.4,13.7,82.7,13.5,82.1,13.5z"/>
<polyline fill="#4B286D" points="73.8,23 28.4,32.7 26.7,37.4 74,25.9 74.1,25.9 74.1,22.9 73.8,23 "/>
<rect fill="none" width="288" height="72"/>
</svg>
