<?xml version="1.0" encoding="utf-8"?>
<!-- Generator: Adobe Illustrator 21.1.0, SVG Export Plug-In . SVG Version: 6.00 Build 0)  -->
<svg version="1.1" id="Layer_1" xmlns="http://www.w3.org/2000/svg" xmlns:xlink="http://www.w3.org/1999/xlink" x="0px" y="0px"
	 width="300px" height="250px" viewBox="0 0 300 250" enable-background="new 0 0 300 250" xml:space="preserve">
<g>
	<path fill="#4B286D" d="M73.1,95.2h-1.5c-0.5-1.9-2.4-3.3-4.9-3.3c-3.9,0-6,3.1-6,6.9c0,3.5,1.9,6.9,5.9,6.9c3.3,0,5.4-2.3,5.4-5.8
		h-5.3v-1.3h6.7v8h-1.1l-0.2-2.9h0c-1,2.1-2.9,3.2-5.4,3.2c-4.8,0-7.4-3.6-7.4-8.2c0-4.5,2.8-8.2,7.4-8.2
		C69.8,90.6,72.4,92.3,73.1,95.2z"/>
	<path fill="#4B286D" d="M86,100.8v0.2h-9.2c0,2.4,1.2,4.7,3.9,4.7c1.9,0,3-1,3.6-2.3h1.4c-0.7,2.1-2.4,3.5-5,3.5
		c-3.6,0-5.4-2.8-5.4-6.4c0-3.2,1.7-6.4,5.4-6.4C84.4,94.3,86,97.4,86,100.8z M84.6,99.8c-0.1-2.1-1.4-4.3-3.8-4.3
		c-2.4,0-3.6,2-3.9,4.3H84.6z"/>
	<path fill="#4B286D" d="M93.2,106.7c-0.4,0.1-1.1,0.1-1.6,0.1c-2,0-2.6-0.6-2.6-2.6v-8.4h-2.4v-1.2H89V91h1.5v3.6h2.7v1.2h-2.7v8.2
		c0,0.9,0.2,1.5,1.3,1.5c0.3,0,1,0,1.5-0.1V106.7z"/>
	<path fill="#4B286D" d="M105.8,106.7c-0.4,0.1-1.1,0.1-1.6,0.1c-2,0-2.6-0.6-2.6-2.6v-8.4h-2.4v-1.2h2.4V91h1.5v3.6h2.7v1.2h-2.7
		v8.2c0,0.9,0.2,1.5,1.3,1.5c0.3,0,1,0,1.5-0.1V106.7z"/>
	<path fill="#4B286D" d="M116.2,106.6V99c0-2.3-1-3.5-3-3.5c-2.4,0-3.8,1.9-3.8,4.1v7h-1.5V90h1.5v6.7h0c0.6-1.5,2.2-2.4,3.9-2.4
		c3.1,0,4.4,1.5,4.4,4.5v7.9H116.2z"/>
	<path fill="#4B286D" d="M130.6,100.8v0.2h-9.2c0,2.4,1.2,4.7,3.9,4.7c1.9,0,3-1,3.6-2.3h1.4c-0.7,2.1-2.4,3.5-5,3.5
		c-3.6,0-5.4-2.8-5.4-6.4c0-3.2,1.7-6.4,5.4-6.4C129,94.3,130.6,97.4,130.6,100.8z M129.1,99.8c-0.1-2.1-1.4-4.3-3.8-4.3
		c-2.4,0-3.6,2-3.9,4.3H129.1z"/>
	<path fill="#4B286D" d="M142.8,106.6l0.6-4.6h-2.5l-0.6,4.6h-1.8l0.6-4.6h-2v-1.6h2.3l0.4-3h-2v-1.6h2.3l0.6-4.5h1.8l-0.6,4.5h2.5
		l0.6-4.5h1.8l-0.6,4.5h1.9v1.6h-2.1l-0.4,3h1.9v1.6h-2.1l-0.6,4.6H142.8z M144,97.5h-2.5l-0.4,3h2.5L144,97.5z"/>
	<path fill="#4B286D" d="M154.3,106.6V95.9h-4V94c1.3,0,2.2-0.2,2.8-0.5c1-0.5,1.5-1.3,1.7-2.6h2v15.8H154.3z"/>
	<path fill="#4B286D" d="M169,89.3v2.4h-1.5v-2.4H169z M169,94.6v12h-1.5v-12H169z"/>
	<path fill="#4B286D" d="M181.7,98.8v7.9h-1.5V99c0-2.3-1-3.5-3-3.5c-2.3,0-3.8,1.8-3.8,4.1v7H172v-12h1.5v2.1h0
		c0.6-1.5,2.2-2.4,3.9-2.4C180.4,94.3,181.7,95.8,181.7,98.8z"/>
	<path fill="#4B286D" d="M189.8,106.7c-0.4,0.1-1.1,0.1-1.6,0.1c-2,0-2.6-0.6-2.6-2.6v-8.4h-2.4v-1.2h2.4V91h1.5v3.6h2.7v1.2h-2.7
		v8.2c0,0.9,0.2,1.5,1.3,1.5c0.3,0,1,0,1.5-0.1V106.7z"/>
	<path fill="#4B286D" d="M201.6,100.8v0.2h-9.2c0,2.4,1.2,4.7,3.9,4.7c1.9,0,3-1,3.6-2.3h1.4c-0.7,2.1-2.4,3.5-5,3.5
		c-3.6,0-5.4-2.8-5.4-6.4c0-3.2,1.7-6.4,5.4-6.4C200,94.3,201.6,97.4,201.6,100.8z M200.1,99.8c-0.1-2.1-1.4-4.3-3.8-4.3
		c-2.4,0-3.6,2-3.9,4.3H200.1z"/>
	<path fill="#4B286D" d="M203.6,106.6v-12h1.4v2.8h0c0.4-0.9,0.9-1.7,1.7-2.2s1.6-0.8,2.5-0.8h0.5v1.5h-0.3c-1.3,0-2.3,0.4-3.1,1.3
		c-0.8,0.8-1.2,1.9-1.2,3.1v6.4H203.6z"/>
	<path fill="#4B286D" d="M220.7,98.8v7.9h-1.5V99c0-2.3-1-3.5-3-3.5c-2.3,0-3.8,1.8-3.8,4.1v7h-1.5v-12h1.5v2.1h0
		c0.6-1.5,2.2-2.4,3.9-2.4C219.4,94.3,220.7,95.8,220.7,98.8z"/>
	<path fill="#4B286D" d="M233.6,100.8v0.2h-9.2c0,2.4,1.2,4.7,3.9,4.7c1.9,0,3-1,3.6-2.3h1.4c-0.7,2.1-2.4,3.5-5,3.5
		c-3.6,0-5.4-2.8-5.4-6.4c0-3.2,1.7-6.4,5.4-6.4C232,94.3,233.6,97.4,233.6,100.8z M232.1,99.8c-0.1-2.1-1.4-4.3-3.8-4.3
		c-2.4,0-3.6,2-3.9,4.3H232.1z"/>
	<path fill="#4B286D" d="M240.7,106.7c-0.4,0.1-1.1,0.1-1.6,0.1c-2,0-2.6-0.6-2.6-2.6v-8.4h-2.4v-1.2h2.4V91h1.5v3.6h2.7v1.2H238
		v8.2c0,0.9,0.2,1.5,1.3,1.5c0.3,0,1,0,1.5-0.1V106.7z"/>
</g>
<g>
	<path fill="#4B286D" d="M51.9,132.7c-0.4,0.1-1.1,0.1-1.6,0.1c-2,0-2.6-0.6-2.6-2.6v-8.4h-2.4v-1.2h2.4V117h1.5v3.6h2.7v1.2h-2.7
		v8.2c0,0.9,0.2,1.5,1.3,1.5c0.3,0,1,0,1.5-0.1V132.7z"/>
	<path fill="#4B286D" d="M63.7,126.8v0.2h-9.2c0,2.4,1.2,4.7,3.9,4.7c1.9,0,3-1,3.6-2.3h1.4c-0.7,2.1-2.4,3.5-5,3.5
		c-3.6,0-5.4-2.8-5.4-6.4c0-3.2,1.7-6.4,5.4-6.4C62,120.3,63.7,123.4,63.7,126.8z M62.2,125.8c-0.1-2.1-1.4-4.3-3.8-4.3
		c-2.4,0-3.6,2-3.9,4.3H62.2z"/>
	<path fill="#4B286D" d="M75.3,123.8h-1.5c-0.3-1.4-1.5-2.3-3.3-2.3c-2.7,0-4.2,2.5-4.2,5.1c0,2.4,1.4,5.1,4.2,5.1
		c1.9,0,3.2-1.3,3.4-2.8h1.5c-0.4,2.2-2.1,4-4.9,4c-3.5,0-5.6-2.8-5.6-6.4c0-3.3,1.9-6.4,5.7-6.4C73.2,120.3,75,121.5,75.3,123.8z"
		/>
	<path fill="#4B286D" d="M85.9,132.6V125c0-2.3-1-3.5-3-3.5c-2.4,0-3.8,1.9-3.8,4.1v7h-1.5V116H79v6.7h0c0.6-1.5,2.2-2.4,3.9-2.4
		c3.1,0,4.4,1.5,4.4,4.5v7.9H85.9z"/>
	<path fill="#4B286D" d="M99.9,124.8v7.9h-1.5V125c0-2.3-1-3.5-3-3.5c-2.3,0-3.8,1.8-3.8,4.1v7h-1.5v-12h1.5v2.1h0
		c0.6-1.5,2.2-2.4,3.9-2.4C98.6,120.3,99.9,121.8,99.9,124.8z"/>
	<path fill="#4B286D" d="M112,131.1c-1,1.2-2.4,1.9-4.2,1.9c-1.7,0-3.1-0.6-4.1-1.8s-1.6-2.7-1.6-4.6s0.5-3.4,1.6-4.6
		s2.4-1.8,4.1-1.8s3.1,0.6,4.1,1.8s1.6,2.7,1.6,4.6C113.5,128.3,113,129.9,112,131.1z M107.8,121.5c-2.7,0-4.2,2.6-4.2,5.1
		c0,2.4,1.4,5.1,4.2,5.1c2.7,0,4.2-2.5,4.2-5.1C112,124.2,110.7,121.5,107.8,121.5z"/>
	<path fill="#4B286D" d="M117.2,116v16.7h-1.5V116H117.2z"/>
	<path fill="#4B286D" d="M129.3,131.1c-1,1.2-2.4,1.9-4.2,1.9c-1.7,0-3.1-0.6-4.1-1.8s-1.6-2.7-1.6-4.6s0.5-3.4,1.6-4.6
		s2.4-1.8,4.1-1.8s3.1,0.6,4.1,1.8s1.6,2.7,1.6,4.6C130.8,128.3,130.3,129.9,129.3,131.1z M125,121.5c-2.7,0-4.2,2.6-4.2,5.1
		c0,2.4,1.4,5.1,4.2,5.1c2.7,0,4.2-2.5,4.2-5.1C129.3,124.2,128,121.5,125,121.5z"/>
	<path fill="#4B286D" d="M141.5,122.7L141.5,122.7l0-2.1h1.5v11.2c0,3.7-1.7,5.7-5.4,5.7c-2.3,0-4.6-0.9-4.8-3.2h1.5
		c0.3,1.3,1.3,2,3.3,2c2.6,0,3.9-1.5,3.9-4.4v-2.2h0c-0.8,1.6-2.2,2.5-3.9,2.5c-3.6,0-5.3-2.5-5.3-6c0-3.1,1.9-5.9,5.4-5.9
		C139.2,120.3,140.8,121.2,141.5,122.7z M137.6,130.9c2.5,0,3.9-2.3,3.9-4.6c0-2.2-1.1-4.8-3.9-4.8c-2.7,0-3.9,2.4-3.9,4.8
		C133.7,128.8,134.9,130.9,137.6,130.9z"/>
	<path fill="#4B286D" d="M145.9,120.6l3.9,10.2h0l3.7-10.2h1.5l-5.2,13.8c-0.6,1.6-1.1,2.7-3.2,2.7c-0.4,0-0.8,0-1.2-0.1v-1.2
		c0.4,0.1,0.7,0.1,1,0.1c1.4,0,1.7-0.9,2.6-3.3l-4.8-12H145.9z"/>
	<path fill="#4B286D" d="M164,121.8v10.8h-1.5v-10.8h-2.4v-1.2h2.4v-1.1c0-1.3,0.2-2.2,0.7-2.7c0.5-0.5,1.3-0.8,2.3-0.8
		c0.6,0,1.2,0,1.4,0.1v1.3c-0.4-0.1-1-0.1-1.2-0.1c-1.2,0-1.7,0.5-1.7,1.8v1.6h2.7v1.2H164z"/>
	<path fill="#4B286D" d="M177.2,131.1c-1,1.2-2.4,1.9-4.2,1.9c-1.7,0-3.1-0.6-4.1-1.8c-1-1.2-1.6-2.7-1.6-4.6s0.5-3.4,1.6-4.6
		c1-1.2,2.4-1.8,4.1-1.8c1.7,0,3.1,0.6,4.1,1.8c1,1.2,1.6,2.7,1.6,4.6C178.7,128.3,178.2,129.9,177.2,131.1z M173,121.5
		c-2.7,0-4.2,2.6-4.2,5.1c0,2.4,1.4,5.1,4.2,5.1c2.7,0,4.2-2.5,4.2-5.1C177.2,124.2,175.9,121.5,173,121.5z"/>
	<path fill="#4B286D" d="M180.9,132.6v-12h1.4v2.8h0c0.4-0.9,0.9-1.7,1.7-2.2s1.6-0.8,2.5-0.8h0.5v1.5h-0.3c-1.3,0-2.3,0.4-3.1,1.3
		c-0.8,0.8-1.2,1.9-1.2,3.1v6.4H180.9z"/>
	<path fill="#4B286D" d="M198,133c-2.8,0-5-1.2-5.3-3.8h2.5c0.2,1.3,1.3,2,2.8,2c1.3,0,2.6-0.6,2.6-1.8c0-1-1.1-1.4-2.3-1.7
		l-1.7-0.4c-2.6-0.6-3.7-1.5-3.7-3.2c0-2.5,2.2-3.7,5-3.7c2.9,0,4.7,1.4,4.9,3.4h-2.5c-0.2-1-1.1-1.6-2.5-1.6
		c-1.2,0-2.2,0.4-2.2,1.5c0,1,1.1,1.4,2,1.6l2.5,0.6c1.8,0.4,3.1,1.2,3.2,3.2C203.2,131.8,200.9,133,198,133z"/>
	<path fill="#4B286D" d="M211.4,133c-1.6,0-3.1-0.8-3.8-2.1h-0.1v6.1h-2.6v-16.4h2.5v1.8h0c0.8-1.4,2.2-2.1,3.8-2.1
		c3.7,0,5.4,2.9,5.4,6.4C216.8,129.8,215.1,133,211.4,133z M210.8,122.3c-2.1,0-3.3,1.5-3.3,4.3c0,2.1,0.9,4.3,3.4,4.3
		c2.1,0,3.2-1.8,3.2-4.3C214.1,124.6,213.3,122.3,210.8,122.3z"/>
	<path fill="#4B286D" d="M229.4,126.8v0.5h-8.9c0.1,2.2,1.2,3.7,3.2,3.7c1.4,0,2.4-0.6,2.9-1.5h2.5c-0.8,2.2-2.8,3.6-5.4,3.6
		c-3.6,0-5.8-2.6-5.8-6.4c0-3.4,2.2-6.4,5.9-6.4C227.5,120.3,229.4,123.3,229.4,126.8z M226.7,125.5c-0.2-1.9-1.2-3.2-3.1-3.2
		c-1.9,0-3,1.3-3.2,3.2H226.7z"/>
	<path fill="#4B286D" d="M241.9,126.8v0.5H233c0.1,2.2,1.2,3.7,3.2,3.7c1.4,0,2.4-0.6,2.9-1.5h2.5c-0.8,2.2-2.8,3.6-5.4,3.6
		c-3.6,0-5.8-2.6-5.8-6.4c0-3.4,2.2-6.4,5.9-6.4C240,120.3,241.9,123.3,241.9,126.8z M239.2,125.5c-0.2-1.9-1.2-3.2-3.1-3.2
		c-1.9,0-3,1.3-3.2,3.2H239.2z"/>
	<path fill="#4B286D" d="M254.8,116v16.7h-2.5v-1.8h0c-0.7,1.4-2.2,2.1-3.9,2.1c-3.5,0-5.4-3-5.4-6.4c0-3.2,1.7-6.3,5.4-6.3
		c1.6,0,3,0.7,3.8,2.1h0V116H254.8z M248.9,130.9c2.2,0,3.3-1.8,3.3-4.3c0-2.1-0.9-4.3-3.3-4.3c-2.3,0-3.3,2.2-3.3,4.3
		C245.6,128.5,246.5,130.9,248.9,130.9z"/>
</g>
<g>
	<path fill="#4B286D" d="M93.8,158.6c-0.4,0.1-0.6,0.1-0.9,0.1c-1.3,0-1.7-0.6-1.7-2.1h-0.1c-0.6,0.9-1.2,1.6-1.9,1.9
		s-1.5,0.5-2.5,0.5c-1.2,0-2.2-0.3-2.9-0.9c-0.7-0.6-1.1-1.5-1.1-2.6c0-1.2,0.4-2,1.2-2.6c0.8-0.6,2.6-1,5.4-1.3
		c1.3-0.1,1.7-0.5,1.7-1.6c0-1.6-0.9-2.5-3.1-2.5c-2,0-3.1,0.9-3.2,2.2h-1.5c0.2-2.1,1.8-3.5,4.8-3.5c3,0,4.4,1.4,4.4,3.8v6.5
		c0,0.5,0.3,0.8,0.9,0.8c0.2,0,0.3,0,0.5-0.1V158.6z M91,152.1L91,152.1c-0.2,0.3-0.7,0.5-1.4,0.6c-0.8,0.1-1.6,0.2-2.6,0.4
		c-1.9,0.3-2.9,1-2.9,2.3c0,0.7,0.3,1.3,0.8,1.7c0.5,0.4,1.2,0.6,1.9,0.6c1.2,0,2.2-0.4,3-1.1c0.8-0.7,1.2-1.6,1.2-2.6V152.1z"/>
	<path fill="#4B286D" d="M105.1,150.8v7.9h-1.5V151c0-2.3-1-3.5-3-3.5c-2.3,0-3.8,1.8-3.8,4.1v7h-1.5v-12h1.5v2.1h0
		c0.6-1.5,2.2-2.4,3.9-2.4C103.8,146.3,105.1,147.8,105.1,150.8z"/>
	<path fill="#4B286D" d="M118.5,142v16.7h-1.4v-2.3h0c-0.7,1.6-2.5,2.6-4.3,2.6c-3.6,0-5.4-2.9-5.4-6.4c0-3.2,1.7-6.4,5.4-6.4
		c1.7,0,3.5,0.9,4.2,2.6h0V142H118.5z M112.8,157.7c2.8,0,4.2-2.4,4.2-5.1c0-2.6-1.3-5.1-4.2-5.1c-2.7,0-3.9,2.6-3.9,5.1
		C108.8,155,109.9,157.7,112.8,157.7z"/>
	<path fill="#4B286D" d="M126.4,158.6v-12.1h2.5v2.4h0c0.4-0.8,0.9-1.5,1.6-2c0.7-0.5,1.5-0.7,2.4-0.7c0.2,0,0.6,0,0.8,0.1v2.5
		c-0.3-0.1-0.6-0.1-1-0.1c-1.2,0-2.1,0.4-2.7,1.1c-0.6,0.7-0.9,1.7-0.9,2.9v5.8H126.4z"/>
	<path fill="#4B286D" d="M145.3,152.8v0.5h-8.9c0.1,2.2,1.2,3.7,3.2,3.7c1.4,0,2.4-0.6,2.9-1.5h2.5c-0.8,2.2-2.8,3.6-5.4,3.6
		c-3.6,0-5.8-2.6-5.8-6.4c0-3.4,2.2-6.4,5.9-6.4C143.4,146.3,145.3,149.3,145.3,152.8z M142.6,151.5c-0.2-1.9-1.2-3.2-3.1-3.2
		c-1.9,0-2.9,1.3-3.2,3.2H142.6z"/>
	<path fill="#4B286D" d="M149.7,142v16.7H147V142H149.7z"/>
	<path fill="#4B286D" d="M154.9,141.3v2.6h-2.6v-2.6H154.9z M154.9,146.6v12.1h-2.6v-12.1H154.9z"/>
	<path fill="#4B286D" d="M168.6,158.6c-0.6,0.2-1,0.2-1.5,0.2c-1.1,0-1.9-0.4-2-1.7h0c-0.5,0.6-1.1,1.1-1.8,1.4
		c-0.7,0.3-1.5,0.4-2.4,0.4c-1.2,0-2.2-0.3-3-0.9c-0.7-0.6-1.1-1.5-1.1-2.7c0-1.1,0.4-2,1.1-2.6c1.2-1,3.3-1.1,5.5-1.4
		c0.9-0.1,1.5-0.4,1.5-1.4c0-1.3-0.7-1.9-2.5-1.9c-1.6,0-2.4,0.7-2.6,1.8h-2.6c0.2-2.5,2.4-3.7,5.4-3.7c3.4,0,5,1.3,5,3.5v6.5
		c0,0.5,0.2,0.7,0.6,0.7c0.1,0,0.3,0,0.5-0.1V158.6z M164.8,152.5L164.8,152.5c-0.2,0.2-0.5,0.3-1,0.4c-0.5,0.1-1.2,0.2-2.1,0.3
		c-1.6,0.3-2.4,0.9-2.4,2c0,0.6,0.2,1.1,0.7,1.4c0.4,0.3,0.9,0.4,1.6,0.4c1,0,1.7-0.3,2.3-0.8c0.6-0.5,0.9-1.3,0.9-2.3V152.5z"/>
	<path fill="#4B286D" d="M176.6,159c-1.9,0-3.4-0.7-4.1-2.1h0v1.8H170V142h2.6v6.4h0.1c0.7-1.3,2.2-2.1,3.9-2.1
		c3.5,0,5.1,3.1,5.1,6.3C181.7,155.8,180.1,159,176.6,159z M175.9,148.3c-2.3,0-3.3,2.2-3.3,4.3c0,2,0.9,4.3,3.3,4.3
		c2.3,0,3.2-2.2,3.2-4.3C179.1,150.7,178.2,148.3,175.9,148.3z"/>
	<path fill="#4B286D" d="M186.3,141.3v2.6h-2.6v-2.6H186.3z M186.3,146.6v12.1h-2.6v-12.1H186.3z"/>
	<path fill="#4B286D" d="M191.6,142v16.7h-2.6V142H191.6z"/>
	<path fill="#4B286D" d="M196.8,141.3v2.6h-2.6v-2.6H196.8z M196.8,146.6v12.1h-2.6v-12.1H196.8z"/>
	<path fill="#4B286D" d="M205.7,158.7c-0.5,0.1-1.4,0.1-2,0.1c-1.9,0-3.4-0.4-3.4-2.7v-7.6h-2.4v-1.9h2.4V143h2.6v3.6h2.7v1.9h-2.7
		v6.8c0,1,0.4,1.4,1.4,1.4c0.3,0,1,0,1.4-0.1V158.7z"/>
	<path fill="#4B286D" d="M208.4,146.6l3.2,9.2h0l3-9.2h2.7l-5.1,13.8c-0.6,1.6-1.6,2.6-3.6,2.6c-0.8,0-1.3,0-1.8-0.1v-2.2
		c0.6,0.1,1.1,0.1,1.5,0.1c1.2,0,1.5-0.7,2-2.1l-4.6-12H208.4z"/>
</g>
<path fill="#4B286D" d="M220.4,155.6v3h-2.9v-3H220.4z"/>
<path fill="#4B286D" d="M222.5,147.5l-0.1-0.1c-0.9-0.6-2-0.3-2-1c0-0.1,0.1-0.4,0.4-0.4c0.6,0,0.6,0.7,1.8,1.4v-0.2
	c0-1.1-0.3-1.2-0.3-1.8c0-0.5,0.4-0.5,0.5-0.5c0.3,0,0.4,0.3,0.4,0.5c0,0.4-0.4,1-0.4,1.7v0.3l0.1-0.1c0.8-0.5,1.2-1.4,1.7-1.4
	c0.2,0,0.5,0.1,0.5,0.5c0,0.8-0.8,0.3-2.1,1.1l0.1,0.1c1.1,0.7,2,0.3,2,1c0,0.3-0.2,0.5-0.5,0.5c-0.6,0-0.9-1-1.7-1.3l-0.1,0v0.1
	c0,1.3,0.4,1.5,0.4,1.8c0,0.2-0.2,0.5-0.5,0.5c-0.2,0-0.5-0.2-0.5-0.5c0-0.4,0.5-1.1,0.4-1.9l0-0.1c-0.7,0.4-0.7,0.4-1,0.8
	c-0.4,0.5-0.5,0.6-0.8,0.6c-0.3,0-0.4-0.3-0.4-0.4C220.4,147.8,221.5,148.3,222.5,147.5z"/>
</svg>
