<?xml version="1.0" encoding="utf-8"?>
<!-- Generator: Adobe Illustrator 21.1.0, SVG Export Plug-In . SVG Version: 6.00 Build 0)  -->
<svg version="1.1" id="Layer_1" xmlns="http://www.w3.org/2000/svg" xmlns:xlink="http://www.w3.org/1999/xlink" x="0px" y="0px"
	 width="300px" height="250px" viewBox="0 0 300 250" enable-background="new 0 0 300 250" xml:space="preserve">
<g>
	<path fill="#4B286D" d="M81.9,105.1v1.3h-5.5v14.4h-1.5v-14.4h-5.5v-1.3H81.9z"/>
	<path fill="#4B286D" d="M93.7,105.1v1.3h-9.3v5.7h8.7v1.3h-8.7v6.2h9.4v1.3H82.9v-15.7H93.7z"/>
	<path fill="#4B286D" d="M97,105.1v14.4h8.8v1.3H95.5v-15.7H97z"/>
	<path fill="#4B286D" d="M107.5,105.1v9.8c0,3.2,1.4,4.9,4.6,4.9c3.2,0,4.6-1.7,4.6-4.9v-9.8h1.5v10.2c0,1.7-0.5,3.2-1.6,4.2
		c-1,1.1-2.6,1.6-4.6,1.6c-1.7,0-3.5-0.5-4.7-1.8c-0.9-1.1-1.4-2.5-1.4-4v-10.2H107.5z"/>
	<path fill="#4B286D" d="M126,121.1c-3.3,0-6-1.6-6-4.6v-0.4h1.5v0.1c0,2,1.5,3.6,4.7,3.6c2.2,0,4.5-1,4.5-3.2c0-1.4-1-2.3-3.1-2.8
		L124,113c-2.5-0.6-3.5-1.8-3.5-3.8c0-2.9,2.7-4.4,5.6-4.4c3.2,0,5.5,1.6,5.6,4.4h-1.5c-0.1-1.7-1.7-3.1-4.1-3.1
		c-2.4,0-4.1,1.1-4.1,3.1c0,1.5,1.1,2.1,2.5,2.4l3.6,0.9c3,0.7,4.2,2,4.2,4.2C132.2,119.9,129.2,121.1,126,121.1z"/>
	<path fill="#4B286D" d="M149.9,112.9c-0.8,0.8-2,1.2-3.3,1.2h-5.6v6.7h-1.5v-15.7h7.1c1.3,0,2.4,0.4,3.3,1.2
		c0.8,0.8,1.3,1.9,1.3,3.3S150.8,112.1,149.9,112.9z M146.1,106.4h-5v6.4h5.2c1,0,1.8-0.3,2.5-0.8c0.6-0.6,0.9-1.4,0.9-2.4
		C149.7,107.6,148.5,106.4,146.1,106.4z"/>
	<path fill="#4B286D" d="M160.9,120.8v-2.2h-0.1c-0.8,1.6-2.3,2.5-4.2,2.5c-2.9,0-4.2-1.6-4.2-4.5v-7.9h1.5v7.8
		c0,2.1,0.9,3.3,3.2,3.3c2.5,0,3.6-2.4,3.6-4.7v-6.4h1.5v12H160.9z"/>
	<path fill="#4B286D" d="M165.2,120.8v-12h1.4v2.8h0c0.4-0.9,0.9-1.7,1.7-2.2s1.6-0.8,2.5-0.8h0.5v1.5H171c-1.3,0-2.3,0.4-3.1,1.3
		c-0.8,0.8-1.2,1.9-1.2,3.1v6.4H165.2z"/>
	<path fill="#4B286D" d="M182.3,114.9v0.2H173c0,2.4,1.2,4.7,3.9,4.7c1.9,0,3-1,3.6-2.3h1.4c-0.7,2.1-2.4,3.5-5,3.5
		c-3.6,0-5.4-2.8-5.4-6.4c0-3.2,1.7-6.4,5.4-6.4C180.7,108.4,182.3,111.5,182.3,114.9z M180.8,113.9c-0.1-2.1-1.4-4.3-3.8-4.3
		c-2.4,0-3.6,2-3.9,4.3H180.8z"/>
	<path fill="#4B286D" d="M194.3,105.1v1.3h-8.5v5.7h7.5v1.3h-7.5v7.5h-1.5v-15.7H194.3z"/>
	<path fill="#4B286D" d="M197.1,103.5v2.4h-1.5v-2.4H197.1z M197.1,108.8v12h-1.5v-12H197.1z"/>
	<path fill="#4B286D" d="M205.7,121.2c-1.8,0-3.5-0.9-4.3-2.6h0v2.3h-1.4v-16.7h1.5v6.9h0c0.6-1.7,2.4-2.6,4.2-2.6
		c3.6,0,5.3,2.9,5.4,6.4C211.2,118,209.5,121.2,205.7,121.2z M205.7,109.6c-2.8,0-4.2,2.4-4.2,5.1c0,2.6,1.2,5.1,4.2,5.1
		c2.8,0,3.9-2.5,3.9-5.1C209.7,112.4,208.6,109.6,205.7,109.6z"/>
	<path fill="#4B286D" d="M213.5,120.8v-12h1.4v2.8h0c0.4-0.9,0.9-1.7,1.7-2.2s1.6-0.8,2.5-0.8h0.5v1.5h-0.3c-1.3,0-2.3,0.4-3.1,1.3
		c-0.8,0.8-1.2,1.9-1.2,3.1v6.4H213.5z"/>
	<path fill="#4B286D" d="M230.6,114.9v0.2h-9.2c0,2.4,1.2,4.7,3.9,4.7c1.9,0,3-1,3.6-2.3h1.4c-0.7,2.1-2.4,3.5-5,3.5
		c-3.6,0-5.4-2.8-5.4-6.4c0-3.2,1.7-6.4,5.4-6.4C229,108.4,230.6,111.5,230.6,114.9z M229.1,113.9c-0.1-2.1-1.4-4.3-3.8-4.3
		c-2.4,0-3.6,2-3.9,4.3H229.1z"/>
</g>
<path fill="#4B286D" d="M234.2,108.5v0.4H233v3.2h-0.5v-3.2h-1.1v-0.4H234.2z M235.5,108.5l1.1,2.9l1.1-2.9h0.7v3.5H238v-3.1h0
	l-1.3,3.1h-0.3l-1.3-3.1h0v3.1h-0.5v-3.5H235.5z"/>
<g>
	<path fill="#4B286D" d="M52.8,131.1v15.7h-2.7v-15.7H52.8z"/>
	<path fill="#4B286D" d="M66.1,139.2v7.6h-2.6v-7.2c0-2.1-0.7-3.1-2.5-3.1c-2,0-3,1.3-3,3.6v6.6h-2.6v-12.1h2.5v1.8H58
		c0.7-1.4,2.2-2.1,3.8-2.1C64.9,134.4,66.1,136,66.1,139.2z"/>
	<path fill="#4B286D" d="M74.9,146.8c-0.5,0.1-1.4,0.1-2,0.1c-1.9,0-3.4-0.4-3.4-2.7v-7.6h-2.4v-1.9h2.4v-3.6h2.6v3.6h2.7v1.9h-2.7
		v6.8c0,1,0.4,1.4,1.4,1.4c0.3,0,1,0,1.4-0.1V146.8z"/>
	<path fill="#4B286D" d="M87.1,140.9v0.5h-8.9c0.1,2.2,1.2,3.7,3.2,3.7c1.4,0,2.4-0.6,2.9-1.5h2.5c-0.8,2.2-2.8,3.6-5.4,3.6
		c-3.6,0-5.8-2.6-5.8-6.4c0-3.4,2.2-6.4,5.9-6.4C85.2,134.4,87.1,137.4,87.1,140.9z M84.4,139.6c-0.2-1.9-1.2-3.2-3.1-3.2
		c-1.9,0-2.9,1.3-3.2,3.2H84.4z"/>
	<path fill="#4B286D" d="M88.8,146.8v-12.1h2.5v2.4h0c0.4-0.8,0.9-1.5,1.6-2c0.7-0.5,1.5-0.7,2.4-0.7c0.2,0,0.6,0,0.8,0.1v2.5
		c-0.3-0.1-0.6-0.1-1-0.1c-1.2,0-2.1,0.4-2.7,1.1c-0.6,0.7-0.9,1.7-0.9,2.9v5.8H88.8z"/>
	<path fill="#4B286D" d="M107.7,139.2v7.6H105v-7.2c0-2.1-0.7-3.1-2.5-3.1c-2,0-3,1.3-3,3.6v6.6h-2.6v-12.1h2.5v1.8h0.1
		c0.7-1.4,2.2-2.1,3.8-2.1C106.4,134.4,107.7,136,107.7,139.2z"/>
	<path fill="#4B286D" d="M120.9,140.9v0.5H112c0.1,2.2,1.2,3.7,3.2,3.7c1.4,0,2.4-0.6,2.9-1.5h2.5c-0.8,2.2-2.8,3.6-5.4,3.6
		c-3.6,0-5.8-2.6-5.8-6.4c0-3.4,2.2-6.4,5.9-6.4C119,134.4,120.9,137.4,120.9,140.9z M118.2,139.6c-0.2-1.9-1.2-3.2-3.1-3.2
		c-1.9,0-2.9,1.3-3.2,3.2H118.2z"/>
	<path fill="#4B286D" d="M129,146.8c-0.5,0.1-1.4,0.1-2,0.1c-1.9,0-3.4-0.4-3.4-2.7v-7.6h-2.4v-1.9h2.4v-3.6h2.6v3.6h2.7v1.9h-2.7
		v6.8c0,1,0.4,1.4,1.4,1.4c0.3,0,1,0,1.4-0.1V146.8z"/>
	<path fill="#4B286D" d="M135.7,146.8v-12.1h2.5v2.4h0c0.4-0.8,0.9-1.5,1.6-2c0.7-0.5,1.5-0.7,2.4-0.7c0.2,0,0.6,0,0.8,0.1v2.5
		c-0.3-0.1-0.6-0.1-1-0.1c-1.2,0-2.1,0.4-2.7,1.1c-0.6,0.7-0.9,1.7-0.9,2.9v5.8H135.7z"/>
	<path fill="#4B286D" d="M154.5,140.9v0.5h-8.9c0.1,2.2,1.2,3.7,3.2,3.7c1.4,0,2.4-0.6,2.9-1.5h2.5c-0.8,2.2-2.8,3.6-5.4,3.6
		c-3.6,0-5.8-2.6-5.8-6.4c0-3.4,2.2-6.4,5.9-6.4C152.6,134.4,154.5,137.4,154.5,140.9z M151.9,139.6c-0.2-1.9-1.2-3.2-3.1-3.2
		c-1.9,0-2.9,1.3-3.2,3.2H151.9z"/>
	<path fill="#4B286D" d="M158.9,129.5v2.6h-2.6v-2.6H158.9z M158.9,134.7v12.1h-2.6v-12.1H158.9z"/>
	<path fill="#4B286D" d="M176.6,146.8v-7.4c0-1.6-0.4-2.8-2.3-2.8c-1.7,0-2.6,1.2-2.6,3.4v6.9H169v-7.7c0-1.7-0.6-2.5-2.2-2.5
		c-0.8,0-1.5,0.3-2,0.9c-0.5,0.6-0.7,1.4-0.7,2.4v7h-2.6v-12.1h2.5v1.8h0c0.9-1.4,2.2-2.1,3.8-2.1c1.8,0,3,0.7,3.5,2.1
		c0.9-1.4,2.2-2.1,3.7-2.1c2.8,0,4.2,1.5,4.2,4.2v8.2H176.6z"/>
	<path fill="#4B286D" d="M192.9,146.8c-0.6,0.2-1,0.2-1.5,0.2c-1.1,0-1.9-0.4-2-1.7h0c-0.5,0.6-1.1,1.1-1.8,1.4
		c-0.7,0.3-1.5,0.4-2.4,0.4c-1.2,0-2.2-0.3-3-0.9c-0.7-0.6-1.1-1.5-1.1-2.7c0-1.1,0.4-2,1.1-2.6c1.2-1,3.3-1.1,5.5-1.4
		c0.9-0.1,1.5-0.4,1.5-1.4c0-1.3-0.7-1.9-2.5-1.9c-1.6,0-2.4,0.7-2.6,1.8h-2.6c0.2-2.5,2.4-3.7,5.4-3.7c3.4,0,5,1.3,5,3.5v6.5
		c0,0.5,0.2,0.7,0.6,0.7c0.1,0,0.3,0,0.5-0.1V146.8z M189.2,140.7L189.2,140.7c-0.2,0.2-0.5,0.3-1,0.4c-0.5,0.1-1.2,0.2-2.1,0.3
		c-1.6,0.3-2.4,0.9-2.4,2c0,0.6,0.2,1.1,0.7,1.4c0.4,0.3,0.9,0.4,1.6,0.4c1,0,1.7-0.3,2.3-0.8c0.6-0.5,0.9-1.3,0.9-2.3V140.7z"/>
	<path fill="#4B286D" d="M202.7,136.5L202.7,136.5l0-1.8h2.5v11.3c0,3.7-2.3,5.4-6,5.4c-2.4,0-4.8-1-5.1-3.5h2.6
		c0.3,1.1,1.2,1.6,2.7,1.6c2,0,3.2-1.2,3.2-3.5v-1.8h0c-0.7,1.3-2.1,2.1-3.7,2.1c-3.5,0-5.2-2.6-5.2-6c0-3.1,1.8-5.9,5.3-5.9
		C200.8,134.4,202,135.2,202.7,136.5z M199.6,144.3c2.1,0,3.2-1.8,3.2-3.8c0-2.3-1-4.1-3.2-4.1s-3.1,1.9-3.1,3.9
		C196.5,142.7,197.5,144.3,199.6,144.3z"/>
	<path fill="#4B286D" d="M210.6,129.5v2.6h-2.6v-2.6H210.6z M210.6,134.7v12.1h-2.6v-12.1H210.6z"/>
	<path fill="#4B286D" d="M223.8,139.2v7.6h-2.6v-7.2c0-2.1-0.7-3.1-2.5-3.1c-2,0-3,1.3-3,3.6v6.6H213v-12.1h2.5v1.8h0.1
		c0.7-1.4,2.2-2.1,3.8-2.1C222.5,134.4,223.8,136,223.8,139.2z"/>
	<path fill="#4B286D" d="M237,140.9v0.5h-8.9c0.1,2.2,1.2,3.7,3.2,3.7c1.4,0,2.4-0.6,2.9-1.5h2.5c-0.8,2.2-2.8,3.6-5.4,3.6
		c-3.6,0-5.8-2.6-5.8-6.4c0-3.4,2.2-6.4,5.9-6.4C235.1,134.4,237,137.4,237,140.9z M234.3,139.6c-0.2-1.9-1.2-3.2-3.1-3.2
		c-1.9,0-3,1.3-3.2,3.2H234.3z"/>
	<path fill="#4B286D" d="M249.9,130.2v16.7h-2.5V145h0c-0.7,1.4-2.2,2.1-3.9,2.1c-3.5,0-5.4-3-5.4-6.4c0-3.2,1.7-6.3,5.4-6.3
		c1.6,0,3,0.7,3.8,2.1h0v-6.4H249.9z M244,145.1c2.2,0,3.3-1.8,3.3-4.3c0-2.1-0.9-4.3-3.3-4.3c-2.3,0-3.3,2.2-3.3,4.3
		C240.7,142.7,241.6,145.1,244,145.1z"/>
</g>
<path fill="#4B286D" d="M255.4,143.8v3h-2.9v-3H255.4z"/>
</svg>
