<?xml version="1.0" encoding="utf-8"?>
<!-- Generator: Adobe Illustrator 21.1.0, SVG Export Plug-In . SVG Version: 6.00 Build 0)  -->
<svg version="1.1" id="Layer_1" xmlns="http://www.w3.org/2000/svg" xmlns:xlink="http://www.w3.org/1999/xlink" x="0px" y="0px"
	 width="300px" height="250px" viewBox="0 0 300 250" enable-background="new 0 0 300 250" xml:space="preserve">
<g>
	<path fill="#4B286D" d="M81.8,67v13.4h8.1v2.3H79.1V67H81.8z"/>
	<path fill="#4B286D" d="M93.6,65.4V68h-2.6v-2.6H93.6z M93.6,70.6v12.1h-2.6V70.6H93.6z"/>
	<path fill="#4B286D" d="M104.5,72.4L104.5,72.4l0-1.8h2.5v11.3c0,3.7-2.3,5.4-6,5.4c-2.4,0-4.8-1-5.1-3.5h2.6
		c0.3,1.1,1.2,1.6,2.7,1.6c2,0,3.2-1.2,3.2-3.5v-1.8h0c-0.7,1.3-2.1,2.1-3.7,2.1c-3.5,0-5.2-2.6-5.2-6c0-3.1,1.8-5.9,5.3-5.9
		C102.5,70.3,103.7,71,104.5,72.4z M101.3,80.2c2.1,0,3.2-1.8,3.2-3.8c0-2.3-1-4.1-3.2-4.1c-2.2,0-3.1,1.9-3.1,3.9
		C98.2,78.6,99.2,80.2,101.3,80.2z"/>
	<path fill="#4B286D" d="M117.7,82.7v-7.2c0-2.1-0.7-3.1-2.5-3.1c-2,0-3,1.4-3,3.6v6.6h-2.6V66h2.6v6.4h0.1c0.7-1.3,2.1-2.1,3.7-2.1
		c3.1,0,4.4,1.5,4.4,4.7v7.6H117.7z"/>
	<path fill="#4B286D" d="M129.1,82.7c-0.5,0.1-1.4,0.1-2,0.1c-1.9,0-3.4-0.4-3.4-2.7v-7.6h-2.4v-1.9h2.4V67h2.6v3.6h2.7v1.9h-2.7
		v6.8c0,1,0.4,1.4,1.4,1.4c0.3,0,1,0,1.4-0.1V82.7z"/>
	<path fill="#4B286D" d="M141.3,75v7.6h-2.6v-7.2c0-2.1-0.7-3.1-2.5-3.1c-2,0-3,1.3-3,3.6v6.6h-2.6V70.6h2.5v1.8h0.1
		c0.7-1.4,2.2-2.1,3.8-2.1C140,70.3,141.3,71.9,141.3,75z"/>
	<path fill="#4B286D" d="M146.4,65.4V68h-2.6v-2.6H146.4z M146.4,70.6v12.1h-2.6V70.6H146.4z"/>
	<path fill="#4B286D" d="M159.6,75v7.6H157v-7.2c0-2.1-0.7-3.1-2.5-3.1c-2,0-3,1.3-3,3.6v6.6h-2.6V70.6h2.5v1.8h0.1
		c0.7-1.4,2.2-2.1,3.8-2.1C158.4,70.3,159.6,71.9,159.6,75z"/>
	<path fill="#4B286D" d="M170.4,72.4L170.4,72.4l0-1.8h2.5v11.3c0,3.7-2.3,5.4-6,5.4c-2.4,0-4.8-1-5.1-3.5h2.6
		c0.3,1.1,1.2,1.6,2.7,1.6c2,0,3.2-1.2,3.2-3.5v-1.8h0c-0.7,1.3-2.1,2.1-3.7,2.1c-3.5,0-5.2-2.6-5.2-6c0-3.1,1.8-5.9,5.3-5.9
		C168.4,70.3,169.7,71,170.4,72.4z M167.2,80.2c2.1,0,3.2-1.8,3.2-3.8c0-2.3-1-4.1-3.2-4.1s-3.1,1.9-3.1,3.9
		C164.1,78.6,165.2,80.2,167.2,80.2z"/>
	<path fill="#4B286D" d="M181.2,75.2v2.2H175v-2.2H181.2z"/>
	<path fill="#4B286D" d="M186.6,72.5v10.2H184V72.5h-2.3v-1.9h2.3v-0.9c0-1.3,0.3-2.2,1-2.8c0.6-0.6,1.5-0.9,2.8-0.9
		c0.5,0,1.1,0,1.7,0.1v2c-0.4-0.1-1-0.1-1.3-0.1c-1.1,0-1.5,0.5-1.5,1.6v0.9h2.6v1.9H186.6z"/>
	<path fill="#4B286D" d="M201.5,82.7c-0.6,0.2-1,0.2-1.5,0.2c-1.1,0-1.9-0.4-2-1.7h0c-0.5,0.6-1.1,1.1-1.8,1.4
		c-0.7,0.3-1.5,0.4-2.4,0.4c-1.2,0-2.2-0.3-3-0.9c-0.7-0.6-1.1-1.5-1.1-2.7c0-1.1,0.4-2,1.1-2.6c1.2-1,3.3-1.1,5.5-1.4
		c0.9-0.1,1.5-0.4,1.5-1.4c0-1.3-0.7-1.9-2.5-1.9c-1.6,0-2.4,0.7-2.6,1.8h-2.6c0.2-2.5,2.4-3.7,5.4-3.7c3.4,0,5,1.3,5,3.5v6.5
		c0,0.5,0.2,0.7,0.6,0.7c0.1,0,0.3,0,0.5-0.1V82.7z M197.7,76.5L197.7,76.5c-0.2,0.2-0.5,0.3-1,0.4c-0.5,0.1-1.2,0.2-2.1,0.3
		c-1.6,0.3-2.4,0.9-2.4,2c0,0.6,0.2,1.1,0.7,1.4c0.4,0.3,0.9,0.4,1.6,0.4c1,0,1.7-0.3,2.3-0.8c0.6-0.5,0.9-1.3,0.9-2.3V76.5z"/>
	<path fill="#4B286D" d="M207.6,83c-2.8,0-5-1.2-5.3-3.8h2.5c0.2,1.3,1.3,2,2.8,2c1.3,0,2.6-0.6,2.6-1.8c0-1-1.1-1.4-2.3-1.7
		l-1.7-0.4c-2.6-0.6-3.7-1.5-3.7-3.2c0-2.5,2.2-3.7,5-3.7c2.9,0,4.7,1.4,4.9,3.4h-2.5c-0.2-1-1.1-1.6-2.5-1.6
		c-1.2,0-2.2,0.4-2.2,1.5c0,1,1.1,1.4,2,1.6l2.5,0.6c1.8,0.4,3.1,1.2,3.2,3.2C212.8,81.8,210.5,83,207.6,83z"/>
	<path fill="#4B286D" d="M220.9,82.7c-0.5,0.1-1.4,0.1-2,0.1c-1.9,0-3.4-0.4-3.4-2.7v-7.6h-2.4v-1.9h2.4V67h2.6v3.6h2.7v1.9h-2.7
		v6.8c0,1,0.4,1.4,1.4,1.4c0.3,0,1,0,1.4-0.1V82.7z"/>
</g>
<g>
	<path fill="#4B286D" d="M81.8,93v1.3h-5.5v14.4h-1.5V94.2h-5.5V93H81.8z"/>
	<path fill="#4B286D" d="M93.7,93v1.3h-9.3v5.7h8.7v1.3h-8.7v6.2h9.4v1.3H82.8V93H93.7z"/>
	<path fill="#4B286D" d="M97,93v14.4h8.8v1.3H95.5V93H97z"/>
	<path fill="#4B286D" d="M107.4,93v9.8c0,3.2,1.4,4.9,4.6,4.9c3.2,0,4.6-1.7,4.6-4.9V93h1.5v10.2c0,1.7-0.5,3.2-1.6,4.2
		c-1,1.1-2.6,1.6-4.6,1.6c-1.7,0-3.5-0.5-4.7-1.8c-0.9-1.1-1.4-2.5-1.4-4V93H107.4z"/>
	<path fill="#4B286D" d="M126,109c-3.3,0-6-1.6-6-4.6V104h1.5v0.1c0,2,1.5,3.6,4.7,3.6c2.2,0,4.5-1,4.5-3.2c0-1.4-1-2.3-3.1-2.8
		l-3.7-0.9c-2.5-0.6-3.5-1.8-3.5-3.8c0-2.9,2.7-4.4,5.6-4.4c3.2,0,5.5,1.6,5.6,4.4h-1.5c-0.1-1.7-1.7-3.1-4.1-3.1
		c-2.4,0-4.1,1.1-4.1,3.1c0,1.5,1.1,2.1,2.5,2.4l3.6,0.9c3,0.7,4.2,2,4.2,4.2C132.2,107.8,129.2,109,126,109z"/>
	<path fill="#4B286D" d="M149.9,100.8c-0.8,0.8-2,1.2-3.3,1.2h-5.6v6.7h-1.5V93h7.1c1.3,0,2.4,0.4,3.3,1.2c0.8,0.8,1.3,1.9,1.3,3.3
		S150.8,100,149.9,100.8z M146.1,94.2h-5v6.4h5.2c1,0,1.8-0.3,2.5-0.8c0.6-0.6,0.9-1.4,0.9-2.4C149.7,95.4,148.5,94.2,146.1,94.2z"
		/>
	<path fill="#4B286D" d="M161,108.7v-2.2h-0.1c-0.8,1.6-2.3,2.5-4.2,2.5c-2.9,0-4.2-1.6-4.2-4.5v-7.9h1.5v7.8c0,2.1,0.9,3.3,3.2,3.3
		c2.5,0,3.6-2.4,3.6-4.7v-6.4h1.5v12H161z"/>
	<path fill="#4B286D" d="M165.2,108.7v-12h1.4v2.8h0c0.4-0.9,0.9-1.7,1.7-2.2s1.6-0.8,2.5-0.8h0.5v1.5H171c-1.3,0-2.3,0.4-3.1,1.3
		c-0.8,0.8-1.2,1.9-1.2,3.1v6.4H165.2z"/>
	<path fill="#4B286D" d="M182.3,102.8v0.2H173c0,2.4,1.2,4.7,3.9,4.7c1.9,0,3-1,3.6-2.3h1.4c-0.7,2.1-2.4,3.5-5,3.5
		c-3.6,0-5.4-2.8-5.4-6.4c0-3.2,1.7-6.4,5.4-6.4C180.7,96.3,182.3,99.4,182.3,102.8z M180.8,101.8c-0.1-2.1-1.4-4.3-3.8-4.3
		c-2.4,0-3.6,2-3.9,4.3H180.8z"/>
	<path fill="#4B286D" d="M194.3,93v1.3h-8.5v5.7h7.5v1.3h-7.5v7.5h-1.5V93H194.3z"/>
	<path fill="#4B286D" d="M197.1,91.4v2.4h-1.5v-2.4H197.1z M197.1,96.6v12h-1.5v-12H197.1z"/>
	<path fill="#4B286D" d="M205.8,109c-1.8,0-3.5-0.9-4.3-2.6h0v2.3h-1.4V92h1.5v6.9h0c0.6-1.7,2.4-2.6,4.2-2.6c3.6,0,5.3,2.9,5.4,6.4
		C211.2,105.9,209.5,109,205.8,109z M205.8,97.5c-2.8,0-4.2,2.4-4.2,5.1c0,2.6,1.2,5.1,4.2,5.1c2.8,0,3.9-2.5,3.9-5.1
		C209.7,100.3,208.6,97.5,205.8,97.5z"/>
	<path fill="#4B286D" d="M213.5,108.7v-12h1.4v2.8h0c0.4-0.9,0.9-1.7,1.7-2.2s1.6-0.8,2.5-0.8h0.5v1.5h-0.3c-1.3,0-2.3,0.4-3.1,1.3
		c-0.8,0.8-1.2,1.9-1.2,3.1v6.4H213.5z"/>
	<path fill="#4B286D" d="M230.6,102.8v0.2h-9.2c0,2.4,1.2,4.7,3.9,4.7c1.9,0,3-1,3.6-2.3h1.4c-0.7,2.1-2.4,3.5-5,3.5
		c-3.6,0-5.4-2.8-5.4-6.4c0-3.2,1.7-6.4,5.4-6.4C229,96.3,230.6,99.4,230.6,102.8z M229.1,101.8c-0.1-2.1-1.4-4.3-3.8-4.3
		c-2.4,0-3.6,2-3.9,4.3H229.1z"/>
</g>
<path fill="#4B286D" d="M234.8,95.1v0.4h-1.3v3.6h-0.5v-3.6h-1.3v-0.4H234.8z M236.4,95.1l1.3,3.3l1.3-3.3h0.8v4.1h-0.5v-3.6h0
	l-1.5,3.6h-0.3l-1.5-3.6h0v3.6h-0.5v-4.1H236.4z"/>
<g>
	<path fill="#4B286D" d="M106,134.7v-7.6c0-2.3-1-3.5-3-3.5c-2.4,0-3.8,1.9-3.8,4.1v7h-1.5V118h1.5v6.7h0c0.6-1.5,2.2-2.4,3.9-2.4
		c3.1,0,4.4,1.5,4.4,4.5v7.9H106z"/>
	<path fill="#4B286D" d="M120.3,134.6c-0.4,0.1-0.6,0.1-0.9,0.1c-1.3,0-1.7-0.6-1.7-2.1h-0.1c-0.6,0.9-1.2,1.6-1.9,1.9
		s-1.5,0.5-2.5,0.5c-1.2,0-2.2-0.3-2.9-0.9c-0.7-0.6-1.1-1.5-1.1-2.6c0-1.2,0.4-2,1.2-2.6c0.8-0.6,2.6-1,5.4-1.3
		c1.3-0.1,1.7-0.5,1.7-1.6c0-1.6-0.9-2.5-3.1-2.5c-2,0-3.1,0.9-3.2,2.2h-1.5c0.2-2.1,1.8-3.5,4.8-3.5c3,0,4.4,1.4,4.4,3.8v6.5
		c0,0.5,0.3,0.8,0.9,0.8c0.2,0,0.3,0,0.5-0.1V134.6z M117.5,128.1L117.5,128.1c-0.2,0.3-0.7,0.5-1.4,0.6c-0.8,0.1-1.6,0.2-2.6,0.4
		c-1.9,0.3-2.9,1-2.9,2.3c0,0.7,0.3,1.3,0.8,1.7c0.5,0.4,1.2,0.6,1.9,0.6c1.2,0,2.2-0.4,3-1.1c0.8-0.7,1.2-1.6,1.2-2.6V128.1z"/>
	<path fill="#4B286D" d="M126,135c-2.9,0-4.6-1.5-4.9-3.7h1.5c0.3,1.5,1.4,2.5,3.5,2.5c1.4,0,3.3-0.6,3.3-2.3c0-1.1-0.8-1.8-2.7-2.2
		l-1.8-0.4c-2.1-0.5-3.4-1.5-3.4-3.2c0-2.4,2.3-3.4,4.5-3.4c2.5,0,4.1,1.2,4.4,3.4h-1.5c-0.2-1.4-1.4-2.1-3-2.1
		c-1.4,0-2.9,0.5-2.9,2.1c0,1.2,1.4,1.8,2.5,2l2.5,0.6c1.5,0.3,2.9,1.3,2.9,3.2C130.8,133.9,128.4,135,126,135z"/>
	<path fill="#4B286D" d="M148.6,134.6c-0.4,0.1-0.6,0.1-0.9,0.1c-1.3,0-1.7-0.6-1.7-2.1h-0.1c-0.6,0.9-1.2,1.6-1.9,1.9
		s-1.5,0.5-2.5,0.5c-1.2,0-2.2-0.3-2.9-0.9c-0.7-0.6-1.1-1.5-1.1-2.6c0-1.2,0.4-2,1.2-2.6c0.8-0.6,2.6-1,5.4-1.3
		c1.3-0.1,1.7-0.5,1.7-1.6c0-1.6-0.9-2.5-3.1-2.5c-2,0-3.1,0.9-3.2,2.2h-1.5c0.2-2.1,1.8-3.5,4.8-3.5c3,0,4.4,1.4,4.4,3.8v6.5
		c0,0.5,0.3,0.8,0.9,0.8c0.2,0,0.3,0,0.5-0.1V134.6z M145.8,128.1L145.8,128.1c-0.2,0.3-0.7,0.5-1.4,0.6c-0.8,0.1-1.6,0.2-2.6,0.4
		c-1.9,0.3-2.9,1-2.9,2.3c0,0.7,0.3,1.3,0.8,1.7c0.5,0.4,1.2,0.6,1.9,0.6c1.2,0,2.2-0.4,3-1.1c0.8-0.7,1.2-1.6,1.2-2.6V128.1z"/>
	<path fill="#4B286D" d="M150.1,134.7v-12h1.4v2.8h0c0.4-0.9,0.9-1.7,1.7-2.2s1.6-0.8,2.5-0.8h0.5v1.5h-0.3c-1.3,0-2.3,0.4-3.1,1.3
		c-0.8,0.8-1.2,1.9-1.2,3.1v6.4H150.1z"/>
	<path fill="#4B286D" d="M157.5,134.7v-12h1.4v2.8h0c0.4-0.9,0.9-1.7,1.7-2.2s1.6-0.8,2.5-0.8h0.5v1.5h-0.3c-1.3,0-2.3,0.4-3.1,1.3
		c-0.8,0.8-1.2,1.9-1.2,3.1v6.4H157.5z"/>
	<path fill="#4B286D" d="M166.4,117.4v2.4H165v-2.4H166.4z M166.4,122.6v12H165v-12H166.4z"/>
	<path fill="#4B286D" d="M169.4,122.6l3.8,10.6h0l3.7-10.6h1.5l-4.5,12h-1.6l-4.6-12H169.4z"/>
	<path fill="#4B286D" d="M189.8,128.8v0.2h-9.2c0,2.4,1.2,4.7,3.9,4.7c1.9,0,3-1,3.6-2.3h1.4c-0.7,2.1-2.4,3.5-5,3.5
		c-3.6,0-5.4-2.8-5.4-6.4c0-3.2,1.7-6.4,5.4-6.4C188.2,122.3,189.8,125.4,189.8,128.8z M188.4,127.8c-0.1-2.1-1.4-4.3-3.8-4.3
		c-2.4,0-3.6,2-3.9,4.3H188.4z"/>
	<path fill="#4B286D" d="M202.3,118v16.7h-1.4v-2.3h0c-0.7,1.6-2.5,2.6-4.3,2.6c-3.6,0-5.4-2.9-5.4-6.4c0-3.2,1.7-6.4,5.4-6.4
		c1.7,0,3.5,0.9,4.2,2.6h0V118H202.3z M196.6,133.8c2.8,0,4.2-2.4,4.2-5.1c0-2.6-1.3-5.1-4.2-5.1c-2.7,0-3.9,2.6-3.9,5.1
		C192.7,131,193.8,133.8,196.6,133.8z"/>
</g>
<path fill="#4B286D" d="M207,132.3v2.3h-2v-2.3H207z"/>
</svg>
